<?xml version="1.0" encoding="utf-8"?>
<!-- Generator: Adobe Illustrator 26.1.0, SVG Export Plug-In . SVG Version: 6.00 Build 0)  -->
<svg version="1.1" id="Capa_1" xmlns="http://www.w3.org/2000/svg" xmlns:xlink="http://www.w3.org/1999/xlink" x="0px" y="0px"
	 viewBox="0 0 44.6 57.3" style="enable-background:new 0 0 44.6 57.3;" xml:space="preserve">
<style type="text/css">
	.st0{fill:#FFFFFF;}
</style>
<g>
	<path class="st0" d="M17.8,11.1c0-5.8,3.5-10,8.9-10.8c1.2-0.2,2.5-0.2,3.6,0.5c1.1,0.8,1.7,1.8,1.7,3.2c0,0.8,0,1.7-0.2,2.5
		c-0.4,1.6-1.8,2.6-3.4,2.8c-1.2,0.1-1.6,0.5-1.6,1.7c0,1.9,0.1,2.2,1.9,2.9c0.2,0.1,0.5,0,0.7-0.1c6.1-2.1,12.4,1.5,13.8,7.8
		c0.4,2,0,4-0.3,6c-1.1,7.2-2.3,14.3-3.3,21.5c-0.9,6.1-6.8,9.5-12.5,7.2c-0.3-0.1-0.7-0.1-1,0c-2.6,1.1-5.1,1.1-7.7,0
		c-0.3-0.1-0.7-0.1-1,0C11.8,58.6,5.9,55.1,5,49c-1.1-7.5-2.2-15-3.5-22.4c-0.5-3.3-0.3-6.4,1.7-9.2c2.7-3.6,7.4-5.2,11.7-3.7
		c0.5,0.2,0.9,0.1,1.4-0.2C17.5,13,18.1,12.3,17.8,11.1z M31,23.5c0-5.3-4.1-9.2-9.2-9c-4.8,0.2-8.6,4.6-8.2,9.5
		c0.7,8.2,1.5,16.4,2.2,24.5c0.3,3.1,2.9,5.7,6,5.9c3.3,0.2,6.1-1.9,6.8-5.1c0.2-0.9,0.2-1.9,0.3-2.8c0.5-5,0.9-10,1.4-15.1
		C30.5,28.7,30.7,25.9,31,23.5z M15.5,54c-1.2-1.5-2-3.1-2.2-4.9c-0.2-1.8-0.3-3.6-0.5-5.4c-0.5-5.7-1-11.4-1.6-17.1
		c-0.2-2.1-0.6-4.2,0.1-6.2c0.5-1.5,1.2-2.9,1.9-4.3c0,0-0.2-0.1-0.4-0.1c-5.4-0.8-9.7,3.8-8.9,9.1c0.8,4.7,1.5,9.5,2.2,14.2
		c0.5,3.4,1,6.7,1.6,10.1C8.4,52.9,12.3,55.2,15.5,54z M31.2,16c0.5,0.8,1,1.6,1.4,2.4c1.3,2.6,1,5.3,0.8,8
		c-0.6,6.4-1.2,12.7-1.7,19.1c-0.3,3-0.3,6.1-2.7,8.5c0.4,0.1,0.6,0.2,0.8,0.2c3.6,0.5,6.6-1.9,7.2-5.6c1.1-7.2,2.2-14.4,3.3-21.6
		c0.3-1.8,0.7-3.5,0.2-5.3C39.5,17.6,35,14.9,31.2,16z M24.2,11.9c0-0.2,0-0.4,0-0.7c0-2.9,1.1-4.1,3.9-4.6c0.6-0.1,1.1-0.4,1.2-1
		c0.3-1.8,0.2-3.3-2.4-2.8c-0.1,0-0.2,0-0.2,0c-3.8,0.7-7,4.3-6.2,8.9C21.7,11.9,22.9,11.9,24.2,11.9z"/>
	<path class="st0" d="M25.5,24.1c0.8,0,1.3,0.6,1.3,1.3c0,0.8-0.6,1.3-1.4,1.2c-0.7,0-1.2-0.6-1.2-1.3
		C24.2,24.6,24.7,24.1,25.5,24.1z"/>
	<path class="st0" d="M19.7,38.9c0.8,0,1.3,0.5,1.3,1.3c0,0.8-0.6,1.3-1.3,1.3c-0.7,0-1.2-0.5-1.3-1.3
		C18.4,39.5,18.9,38.9,19.7,38.9z"/>
</g>
<g>
</g>
<g>
</g>
<g>
</g>
<g>
</g>
<g>
</g>
<g>
</g>
</svg>
