<?xml version="1.0" encoding="utf-8"?>
<!-- Generator: Adobe Illustrator 26.1.0, SVG Export Plug-In . SVG Version: 6.00 Build 0)  -->
<svg version="1.1" id="Capa_1" xmlns="http://www.w3.org/2000/svg" xmlns:xlink="http://www.w3.org/1999/xlink" x="0px" y="0px"
	 viewBox="0 0 55.1 57.3" style="enable-background:new 0 0 55.1 57.3;" xml:space="preserve">
<style type="text/css">
	.st0{fill:#FFFFFF;}
</style>
<g>
	<path class="st0" d="M39.1,48.8c0,0.3,0,0.8,0,1.2c-0.1,2.6-2.1,4.7-4.7,4.7c-4.8,0-9.6,0-14.4,0c-2.6,0-4.6-2.1-4.7-4.7
		c0-0.4,0-0.8,0-1.2c-1.3-0.3-2.5-0.5-3.7-1C6.8,46,3.8,42.6,2.4,37.7c-0.4-1.5-0.8-2.9-1.2-4.4c-0.7-2.8,0.6-4.7,3.5-4.9
		c0.1,0,0.2,0,0.3-0.1c0.1-0.4,0.2-0.9,0.3-1.3c0.8-2.7,2.5-4.5,5.1-5.5c0.5-0.2,0.7-0.4,0.8-0.9c0.1-0.7,0.4-1.5,0.7-2.2
		c0.2-0.5,0.2-0.8-0.1-1.2C8.1,12.6,4.6,7.9,1,3.2C0.8,3,0.6,2.8,0.5,2.5C0.2,2,0.3,1.5,0.8,1.1c0.5-0.4,1-0.4,1.5,0
		c0.2,0.2,0.4,0.4,0.5,0.6c3.5,4.6,7,9.1,10.4,13.7c0.1,0.2,0.3,0.3,0.4,0.5c0.2-0.1,0.3-0.2,0.5-0.3c1.8-1.4,3.9-1.9,6.2-1.5
		c0.5,0.1,0.8,0,1.1-0.4c3.2-4.4,9.4-4.4,12.6-0.1c0.1,0.2,0.4,0.4,0.7,0.4c3.6-0.2,6.3,1.3,8,4.6c0.2-0.3,0.3-0.6,0.5-0.9
		C46,12.5,48.7,7.2,51.5,2c0.1-0.2,0.2-0.5,0.4-0.7c0.4-0.5,1-0.7,1.5-0.4C54,1.3,54.2,1.8,54,2.4c-0.1,0.2-0.2,0.5-0.4,0.7
		c-3.1,5.9-6.2,11.7-9.3,17.6c-0.1,0.3-0.2,0.5-0.4,0.8c3.8,2.3,4.6,3.3,5.3,6.8c0.5,0.1,0.9,0.1,1.4,0.2c1.6,0.4,2.9,2,2.6,3.6
		c-0.7,3.2-1.2,6.4-2.9,9.2c-2.4,4.2-6,6.5-10.7,7.2c-0.2,0-0.3,0-0.5,0.1C39.2,48.7,39.2,48.7,39.1,48.8z M4.7,36.8
		c0.1,0.4,0.1,0.7,0.2,0.9c1.5,5.2,6.2,8.6,11.7,8.6c7,0,14.1,0,21.1,0c4.2,0,7.6-1.7,10-5.2c1-1.3,1.6-2.8,1.9-4.4
		C34.7,36.8,19.8,36.8,4.7,36.8z M7.7,28.3c13.1,0,26.1,0,39.1,0c-0.1-2.3-2-4.3-4.3-4.7c-1.3-0.2-1.5-0.4-1.5-1.7
		c0-3.7-2.8-6.1-6.5-5.5c-1.3,0.2-1.4,0.1-2-1c-1.1-1.9-2.8-2.9-4.9-2.8c-2.2,0.1-3.8,1.2-4.7,3.2c-0.5,1-0.9,1.2-1.9,0.8
		c-3.8-1.4-7.4,1.1-7.5,5.1c0,1.3-0.2,1.5-1.5,1.7C9.7,24,7.7,26.1,7.7,28.3z M27.1,34.4c7.5,0,15,0,22.5,0c0.3,0,0.7,0,0.8-0.2
		c0.2-0.8,0.5-1.6,0.5-2.5c0-0.3-0.6-0.7-0.9-0.9c-0.2-0.1-0.5,0-0.8,0c-14.6,0-29.3,0-43.9,0c-0.2,0-0.4,0-0.6,0
		c-0.8,0.1-1.3,0.6-1.1,1.4c0.1,0.5,0.3,0.9,0.3,1.4c0.1,0.6,0.4,0.8,1,0.8C12.2,34.3,19.7,34.4,27.1,34.4z M17.7,48.8
		c-0.4,2.3,0.8,3.6,3.1,3.6c4.4-0.1,8.8-0.1,13.2,0c1.7,0,3.3-1.2,2.7-3.6C30.3,48.8,24,48.8,17.7,48.8z"/>
	<path class="st0" d="M34.3,22.3c0,0.7-0.5,1.2-1.2,1.2c-0.6,0-1.2-0.5-1.2-1.2c0-0.7,0.5-1.2,1.2-1.2
		C33.8,21.2,34.3,21.7,34.3,22.3z"/>
	<path class="st0" d="M21.3,21.2c0.6,0,1.2,0.5,1.2,1.2c0,0.7-0.6,1.2-1.2,1.2c-0.7,0-1.2-0.6-1.1-1.3
		C20.1,21.7,20.6,21.2,21.3,21.2z"/>
	<path class="st0" d="M28.4,18.8c0,0.7-0.6,1.2-1.2,1.2c-0.6,0-1.1-0.6-1.1-1.2c0-0.6,0.5-1.2,1.2-1.2
		C27.8,17.6,28.4,18.1,28.4,18.8z"/>
</g>
<g>
</g>
<g>
</g>
<g>
</g>
<g>
</g>
<g>
</g>
<g>
</g>
</svg>
