<?xml version="1.0" encoding="utf-8"?>
<!-- Generator: Adobe Illustrator 26.1.0, SVG Export Plug-In . SVG Version: 6.00 Build 0)  -->
<svg version="1.1" id="Capa_1" xmlns="http://www.w3.org/2000/svg" xmlns:xlink="http://www.w3.org/1999/xlink" x="0px" y="0px"
	 viewBox="0 0 48.7 50.9" style="enable-background:new 0 0 48.7 50.9;" xml:space="preserve">
<style type="text/css">
	.st0{fill:#FFFFFF;}
</style>
<g>
	<path class="st0" d="M23.9,16.6c-0.1-0.1-0.2-0.3-0.3-0.4c-1.1-1.2-0.9-2.6,0.4-3.5c3.2-2.3,6.6-2.8,10.4-1.7c0.8,0.3,1.3,0,2-1
		c0.4-0.5,0.3-1.3-0.2-1.8c-0.3-0.3-0.6-0.6-0.9-0.9c-0.9-1-0.9-2.4,0-3.4C36.1,3,37,2.1,38,1.2c0.9-0.8,2.2-1,3.1-0.2
		c2,1.7,3.5,3.8,4,6.5c0.5,3.4-0.3,6.4-2.8,8.8c-0.8,0.8-1,1.4-0.7,2.5c1,3.5,0.4,6.7-1.7,9.7c-1,1.5-2.4,1.6-3.8,0.4
		c-0.1-0.1-0.1-0.1-0.2-0.2c-1.5,1.9-3,3.7-4.5,5.5c-3,3.8-6.1,7.6-9.1,11.3c-4.1,5.1-11.2,5.8-15.9,1.6c-5-4.5-4.9-12.4,0.4-16.6
		c5.6-4.5,11.2-9,16.8-13.5C23.6,16.8,23.7,16.7,23.9,16.6z M34.4,26.8c-0.3-0.3-0.7-0.5-1-0.8c-0.4-0.5-0.8-0.6-1.4-0.3
		c-1.6,0.7-3.2,1-4.9,1c-0.9,0-1.3-0.4-1.4-1.3c0-0.3,0-0.5,0-0.8c0.1-1.6,0.5-3,1.1-4.5c0.1-0.2,0-0.5-0.1-0.7
		c-0.3-0.5-0.7-0.9-1.1-1.3c-0.2,0.1-0.3,0.2-0.3,0.2C19.5,23,13.8,27.5,8.1,32.2c-2.7,2.2-3.7,5.1-3,8.5c0.8,3.4,2.9,5.7,6.4,6.5
		c3.4,0.9,6.4-0.2,8.7-2.9c1.4-1.7,2.8-3.4,4.2-5.1C27.7,35.2,31,31.1,34.4,26.8z M37.9,27.3c0.2-0.2,0.3-0.4,0.4-0.6
		c1.7-2.8,2-5.7,0.7-8.7c-0.4-1.1-0.4-1.2,0.4-2c0.4-0.4,0.8-0.8,1.2-1.2c3.1-3.2,3.1-7.9,0.1-11.1c-1.1-1.1-1-1.1-2.1,0
		c-0.6,0.6-1.3,1.2-2,1.9C37,6,37.4,6.3,37.7,6.6c1.5,1.5,1.5,3.7,0,5.2c-0.4,0.4-0.8,0.8-1.3,1.3c-0.8,0.8-1,0.8-2,0.4
		c-3.3-1.4-6.3-1-9.3,1.1c0.2,0.2,0.4,0.4,0.5,0.6c0.9,0.9,1.8,1.8,2.7,2.7c1.5,1.5,1.5,1.4,0.6,3.2c-0.5,1.1-0.9,2.2-0.9,3.5
		c1.5-0.1,2.8-0.6,4.1-1.2c0.9-0.5,1.2-0.4,2,0.3C35.4,24.8,36.6,26,37.9,27.3z"/>
	<path class="st0" d="M15.2,37.7c0,0.7-0.4,1.1-1.1,1.1c-0.7,0-1.1-0.4-1.1-1.1c0-0.6,0.4-1.1,1-1.1C14.7,36.6,15.2,37,15.2,37.7z"
		/>
	<path class="st0" d="M19.6,37.7c0,0.7-0.4,1.1-1.1,1.1c-0.7,0-1.1-0.5-1.1-1.1c0-0.6,0.4-1.1,1.1-1.1C19.1,36.6,19.6,37,19.6,37.7z
		"/>
	<path class="st0" d="M16.3,42.1c0,0.6-0.5,1.1-1.1,1.1c-0.6,0-1.1-0.5-1.1-1.1c0-0.6,0.5-1,1.1-1C15.8,41,16.3,41.4,16.3,42.1z"/>
</g>
<g>
</g>
<g>
</g>
<g>
</g>
<g>
</g>
<g>
</g>
<g>
</g>
</svg>
