<?xml version="1.0" encoding="utf-8"?>
<!-- Generator: Adobe Illustrator 26.1.0, SVG Export Plug-In . SVG Version: 6.00 Build 0)  -->
<svg version="1.1" id="Capa_1" xmlns="http://www.w3.org/2000/svg" xmlns:xlink="http://www.w3.org/1999/xlink" x="0px" y="0px"
	 viewBox="0 0 113 106" style="enable-background:new 0 0 113 106;" xml:space="preserve">
<style type="text/css">
	.st0{clip-path:url(#SVGID_00000085235036569586664750000014480069979564487862_);fill:#237B69;}
	.st1{clip-path:url(#SVGID_00000137839739435698246220000012753728069165391505_);fill:#237B69;}
	.st2{clip-path:url(#SVGID_00000034055025447801821780000016466473516129906614_);fill:#237B69;}
	.st3{clip-path:url(#SVGID_00000160868869294281627550000008920175012031873465_);fill:#237B69;}
	
		.st4{clip-path:url(#SVGID_00000092457019518189952430000003931135207145399451_);fill-rule:evenodd;clip-rule:evenodd;fill:#237B69;}
	
		.st5{clip-path:url(#SVGID_00000049221094341010892850000009530625528658921101_);fill-rule:evenodd;clip-rule:evenodd;fill:#237B69;}
	.st6{clip-path:url(#SVGID_00000021096313714810134650000000953138384808141247_);fill:#237B69;}
	.st7{clip-path:url(#SVGID_00000005959804121923254040000004115963574893250740_);fill:#010202;}
	.st8{clip-path:url(#SVGID_00000072247340966593108460000013887677203963144379_);fill:#010202;}
	.st9{clip-path:url(#SVGID_00000042006998860081482820000007361824117390933165_);fill:#010202;}
	.st10{clip-path:url(#SVGID_00000029738602721103731330000016386015035925702831_);fill:#010202;}
	.st11{clip-path:url(#SVGID_00000081630607950040412300000008656294045735508905_);}
	.st12{clip-path:url(#SVGID_00000081607901021662229390000007874249838739128214_);}
	.st13{clip-path:url(#SVGID_00000033333061058949406320000005928272657648781716_);fill:#010202;}
	.st14{clip-path:url(#SVGID_00000127006453553989398420000003994229146658951086_);}
	.st15{clip-path:url(#SVGID_00000097476499780326732370000010839637406367677843_);}
	.st16{clip-path:url(#SVGID_00000042716335662108117530000006187801357315635087_);}
	.st17{clip-path:url(#SVGID_00000019640437628416976250000000706937999455500479_);}
	.st18{clip-path:url(#SVGID_00000154411195038874436340000000010281268234028941_);fill:#FFFFFF;}
	.st19{clip-path:url(#SVGID_00000060712364617630950580000009227796652927492237_);fill:#FFFFFF;}
	.st20{filter:url(#Adobe_OpacityMaskFilter);}
	.st21{clip-path:url(#SVGID_00000103948662223824451860000006253623250600951738_);}
	.st22{clip-path:url(#SVGID_00000156573756255190589070000015449577345561061517_);fill:#010202;}
	
		.st23{clip-path:url(#SVGID_00000103948662223824451860000006253623250600951738_);mask:url(#SVGID_00000115483284068101222410000011682965047966350505_);}
	.st24{clip-path:url(#SVGID_00000027590870558465909690000007309832597755651772_);fill:#FFFFFF;}
	.st25{clip-path:url(#SVGID_00000096050971873349182900000016078482013310341252_);fill:#010202;}
	.st26{clip-path:url(#SVGID_00000111159381680274537310000007303873749669889463_);fill:#010202;}
	.st27{clip-path:url(#SVGID_00000098922920463948011670000006737260651396717217_);fill:#010202;}
	.st28{clip-path:url(#SVGID_00000163764896058206241340000015830724028356432547_);fill:#010202;}
	
		.st29{clip-path:url(#SVGID_00000049933064922911319310000003984049828611471529_);fill-rule:evenodd;clip-rule:evenodd;fill:#010202;}
	.st30{clip-path:url(#SVGID_00000099656045209185461880000009681846185717925286_);}
	.st31{clip-path:url(#SVGID_00000055693203774535149400000010538521350123888306_);}
	.st32{clip-path:url(#SVGID_00000017485015546794737350000013238724372760985020_);fill:#1D6859;}
	.st33{clip-path:url(#SVGID_00000101783073911689120700000001687325293564130748_);}
	.st34{clip-path:url(#SVGID_00000102537410271103239680000009514514963886688896_);}
	.st35{clip-path:url(#SVGID_00000087410098172817641750000013253579781581220030_);}
	.st36{clip-path:url(#SVGID_00000083797058937325026130000009811942703185400985_);}
	.st37{clip-path:url(#SVGID_00000041296818765545174170000000634431958532159659_);}
	.st38{clip-path:url(#SVGID_00000182491006832626293440000013123458297558764957_);}
	.st39{clip-path:url(#SVGID_00000170962591926960799370000018127743960533453755_);}
	.st40{clip-path:url(#SVGID_00000183221708247651899160000012795705927724382115_);}
	.st41{clip-path:url(#SVGID_00000062173089756623892300000008620281613691799425_);fill:#FFFFFF;}
	.st42{clip-path:url(#SVGID_00000116196071528531127090000014753988984126512290_);fill:#FFFFFF;}
	.st43{clip-path:url(#SVGID_00000069387727282767859150000014579382066369413254_);fill:#FFFFFF;}
	.st44{filter:url(#Adobe_OpacityMaskFilter_00000128485128314469223610000016281694165464230832_);}
	.st45{clip-path:url(#SVGID_00000063624025094971882370000002385478016785776052_);fill:#010202;}
	
		.st46{clip-path:url(#SVGID_00000063624025094971882370000002385478016785776052_);mask:url(#SVGID_00000148657037595439379250000013407737928746071726_);}
	.st47{clip-path:url(#SVGID_00000075866582909064487850000003048503718533372081_);fill:#FFFFFF;}
	.st48{clip-path:url(#SVGID_00000075866582909064487850000003048503718533372081_);fill:#EEF2E6;}
	.st49{clip-path:url(#SVGID_00000075866582909064487850000003048503718533372081_);fill:#237B69;}
	.st50{clip-path:url(#SVGID_00000075866582909064487850000003048503718533372081_);fill:#010202;}
	.st51{filter:url(#Adobe_OpacityMaskFilter_00000166677438808116275910000000869469806529901697_);}
	.st52{clip-path:url(#SVGID_00000075866582909064487850000003048503718533372081_);fill:#D9D9D9;}
	.st53{clip-path:url(#SVGID_00000075866582909064487850000003048503718533372081_);}
	.st54{clip-path:url(#SVGID_00000090282702883054187410000003367118133448750249_);}
	.st55{clip-path:url(#SVGID_00000170261797462981887520000017196606456754644877_);}
	.st56{filter:url(#Adobe_OpacityMaskFilter_00000166644515417628915010000010409722568835159681_);}
	
		.st57{clip-path:url(#SVGID_00000075866582909064487850000003048503718533372081_);mask:url(#SVGID_00000073691345455131417780000003730123972009243793_);}
	.st58{clip-path:url(#SVGID_00000030478632556142230040000001228285756639902110_);}
	.st59{clip-path:url(#SVGID_00000018947103353655565900000014714696069222145152_);}
	.st60{clip-path:url(#SVGID_00000021822235521788513050000007076427769140184733_);}
	.st61{clip-path:url(#SVGID_00000169538888345099079910000002281958173145271480_);fill:#87AE95;}
	.st62{clip-path:url(#SVGID_00000075866582909064487850000003048503718533372081_);enable-background:new    ;}
	.st63{clip-path:url(#SVGID_00000132067713032719816050000003094115537956587948_);fill:#010202;}
	.st64{clip-path:url(#SVGID_00000075866582909064487850000003048503718533372081_);fill:#B0C9B9;}
	.st65{clip-path:url(#SVGID_00000075866582909064487850000003048503718533372081_);fill:#BED3C6;}
	.st66{clip-path:url(#SVGID_00000165201480244270843730000014635667420388046468_);}
	.st67{clip-path:url(#SVGID_00000026123305228642493090000008860654414241806520_);}
	.st68{clip-path:url(#SVGID_00000075855976728626187210000005012163722921950104_);}
	.st69{clip-path:url(#SVGID_00000143597119108350710110000012897275875405571972_);}
	.st70{clip-path:url(#SVGID_00000093859087041047643370000004371477661918591367_);}
	.st71{clip-path:url(#SVGID_00000075857563308087182020000010087884775114626954_);}
	.st72{clip-path:url(#SVGID_00000171681036166852730940000012276441760428039849_);}
	.st73{filter:url(#Adobe_OpacityMaskFilter_00000082364667106181370630000007084984349376315581_);}
	.st74{clip-path:url(#SVGID_00000178922843638893957270000011402395146087502476_);fill:#010202;}
	
		.st75{clip-path:url(#SVGID_00000178922843638893957270000011402395146087502476_);mask:url(#SVGID_00000117667051782686884990000003946812104154974887_);}
	.st76{clip-path:url(#SVGID_00000056406460057305207510000013696028542283790983_);fill:#FFFFFF;}
	.st77{clip-path:url(#SVGID_00000056406460057305207510000013696028542283790983_);fill:#EEF2E6;}
	.st78{clip-path:url(#SVGID_00000056406460057305207510000013696028542283790983_);fill:#237B69;}
	.st79{clip-path:url(#SVGID_00000056406460057305207510000013696028542283790983_);fill:#010202;}
	.st80{filter:url(#Adobe_OpacityMaskFilter_00000173864791026995155780000004553245363866449833_);}
	.st81{clip-path:url(#SVGID_00000056406460057305207510000013696028542283790983_);fill:#D9D9D9;}
	.st82{clip-path:url(#SVGID_00000056406460057305207510000013696028542283790983_);}
	.st83{clip-path:url(#SVGID_00000133502398778875240350000017161555442606813067_);}
	.st84{clip-path:url(#SVGID_00000052805755296828144750000014933739485354163854_);}
	.st85{filter:url(#Adobe_OpacityMaskFilter_00000067202334423481287710000003663461499171699850_);}
	
		.st86{clip-path:url(#SVGID_00000056406460057305207510000013696028542283790983_);mask:url(#SVGID_00000011014980279727232060000007814857174752940676_);}
	.st87{clip-path:url(#SVGID_00000036944008858053311270000003566649163801971620_);}
	.st88{clip-path:url(#SVGID_00000143582211464054379540000010795897348467856528_);}
	.st89{clip-path:url(#SVGID_00000059308123764957771620000015391565516063967901_);}
	.st90{clip-path:url(#SVGID_00000163055688407305305210000004728372306727199155_);fill:#87AE95;}
	.st91{clip-path:url(#SVGID_00000056406460057305207510000013696028542283790983_);enable-background:new    ;}
	.st92{clip-path:url(#SVGID_00000080888913272923418950000015254731216589064605_);fill:#010202;}
	.st93{clip-path:url(#SVGID_00000056406460057305207510000013696028542283790983_);fill:#BED3C6;}
	.st94{clip-path:url(#SVGID_00000109015296247308943070000003625655548552695220_);}
	.st95{clip-path:url(#SVGID_00000173840337481867719730000009602208345403708849_);}
	.st96{clip-path:url(#SVGID_00000115511979147581077300000016872728099332805290_);}
	.st97{clip-path:url(#SVGID_00000182500774411229352620000011376998656139662774_);}
	.st98{clip-path:url(#SVGID_00000093178175559237649600000010382427568551092635_);}
	.st99{clip-path:url(#SVGID_00000033346751248575098040000000044854293742066309_);}
	.st100{clip-path:url(#SVGID_00000012464815323911191610000015872721293819798441_);}
	.st101{clip-path:url(#SVGID_00000003087022436945642960000005346912794531093638_);}
</style>
<g>
	<g>
		<defs>
			<rect id="SVGID_1_" width="113" height="106"/>
		</defs>
		<clipPath id="SVGID_00000036937411010003150980000011870938325846965143_">
			<use xlink:href="#SVGID_1_"  style="overflow:visible;"/>
		</clipPath>
		<path style="clip-path:url(#SVGID_00000036937411010003150980000011870938325846965143_);fill:#237B69;" d="M37.5,105.3
			c0.3,0.2,0.6,0.3,0.7,0.3c0.2,0,0.4,0.1,0.6,0.1c0.4,0.1,0.9,0.1,1.5,0.1c1.2,0.1,2.7,0.1,4.5,0.2c3.6,0.1,8.2,0,12.8-0.1
			c4.6-0.1,9.1-0.2,12.4-0.3c1.7,0,3.1-0.1,4.1-0.1c0.5,0,0.9,0,1.1,0c0.1,0,0.2,0,0.3,0c0,0,0.1,0,0.1,0c0,0,0,0,0,0c0,0,0,0,0,0
			c0,0,0,0,0,0c0,0,0,0,0-1.5s0-1.5,0-1.5c0,0,0,0,0,0c0,0,0,0,0,0c0,0,0,0,0,0c0,0,0,0-0.1,0c-0.1,0-0.2,0-0.3,0
			c-0.3,0-0.6,0-1.1,0c-1,0-2.4,0.1-4,0.1c-3.4,0.1-7.8,0.2-12.4,0.3C53,103,48.4,103,44.8,103c-1.8,0-3.3-0.1-4.4-0.1
			c-0.5,0-1-0.1-1.3-0.1c-0.1,0-0.2,0-0.3-0.1c-0.1,0,0,0,0.2,0.1L37.5,105.3z M47.5,85.9c-1.3-0.8-1.3-0.8-1.3-0.8c0,0,0,0,0,0
			c0,0,0,0,0,0c0,0,0,0,0,0c0,0,0,0,0,0c0,0-0.1,0.1-0.1,0.1c-0.1,0.1-0.2,0.3-0.3,0.5c-0.3,0.5-0.7,1.1-1.2,2c-1,1.6-2.3,3.8-3.6,6
			c-1.3,2.2-2.5,4.5-3.3,6.3c-0.4,0.9-0.7,1.8-0.9,2.5c-0.1,0.3-0.2,0.8-0.1,1.2c0,0.4,0.2,1.1,0.8,1.5l1.7-2.5
			c0.5,0.3,0.5,0.8,0.5,0.8c0,0,0,0,0-0.3c0.1-0.4,0.3-1.1,0.7-1.9c0.8-1.7,1.9-3.9,3.2-6.1c1.2-2.2,2.5-4.3,3.5-5.9
			c0.5-0.8,0.9-1.5,1.2-1.9c0.1-0.2,0.3-0.4,0.3-0.5c0-0.1,0.1-0.1,0.1-0.1c0,0,0,0,0,0c0,0,0,0,0,0c0,0,0,0,0,0c0,0,0,0,0,0
			C48.7,86.7,48.7,86.7,47.5,85.9z M8.8,87.4h38.6v-3H8.8V87.4z M3.6,85.4c1.5,1.1,3.2,1.8,5,2l0.4-3c-1.3-0.2-2.6-0.7-3.7-1.4
			L3.6,85.4z M0.1,81.2c0.8,1.7,2,3.1,3.5,4.2l1.8-2.4c-1.1-0.8-1.9-1.8-2.5-3L0.1,81.2z M0,19.6v61h3v-61H0z M8.7,11
			c-2.1,0.2-4,0.9-5.6,2.3c-1.6,1.4-2.6,3.4-3.1,6L3,19.9c0.4-2.1,1.2-3.5,2.1-4.3c1-0.9,2.2-1.4,3.9-1.5L8.7,11z M47.5,85.9
			l1.3,0.8l1.5-2.3h-2.7V85.9z M8.8,85.9l-0.2,1.5l0.1,0h0.1V85.9z M1.5,80.6H0v0.3l0.1,0.3L1.5,80.6z M1.5,19.6L0,19.3l0,0.1v0.1
			H1.5z"/>
		
			<rect x="1.5" y="74" style="clip-path:url(#SVGID_00000036937411010003150980000011870938325846965143_);fill:#237B69;" width="62" height="3"/>
		<path style="clip-path:url(#SVGID_00000036937411010003150980000011870938325846965143_);fill:#237B69;" d="M102,8.5v62h3v-62H102
			z M100.9,5.2c0.7,1,1.1,2.2,1.1,3.4l3-0.1c-0.1-1.8-0.6-3.5-1.6-4.9L100.9,5.2z M98.2,2.9c1.1,0.5,2,1.3,2.7,2.4l2.5-1.7
			c-1-1.5-2.3-2.6-3.9-3.4L98.2,2.9z M17.1,3h81.8V0H17.1V3z M14,7.8c0.2-1.4,0.6-2.4,1.1-3.2c0.5-0.8,1.3-1.3,2.4-1.7l-0.9-2.9
			c-1.7,0.5-3.1,1.5-4,2.8c-0.9,1.3-1.4,2.9-1.6,4.5L14,7.8z M14,68.7V7.6h-3v61.1H14z M103.5,8.5h1.5v0l0,0L103.5,8.5z M98.8,1.5
			l0.6-1.4L99.2,0h-0.3V1.5z M17.1,1.5V0h-0.2l-0.2,0.1L17.1,1.5z M12.5,7.6L11,7.4l0,0.1v0.1H12.5z"/>
		<path style="clip-path:url(#SVGID_00000036937411010003150980000011870938325846965143_);fill:#237B69;" d="M108.7,87.5
			c-0.7,0.8-1.6,1.3-2.5,1.5l0.6,2.9c1.6-0.3,3.1-1.2,4.2-2.5L108.7,87.5z M110,84.5c-0.1,1.1-0.6,2.2-1.3,3l2.3,2
			c1.1-1.3,1.8-2.9,2-4.6L110,84.5z M110,21.9v62.9h3V21.9H110z M106.1,17.9c1.3,0.4,2.3,1,2.9,1.6c0.6,0.6,1,1.4,1.1,2.5l3-0.3
			c-0.2-1.6-0.8-3.1-1.9-4.2c-1.1-1.1-2.5-1.9-4.2-2.4L106.1,17.9z M111.5,84.7l1.5,0.2l0-0.1v-0.1H111.5z M111.5,21.9h1.5v-0.1
			l0-0.1L111.5,21.9z"/>
		<path style="clip-path:url(#SVGID_00000036937411010003150980000011870938325846965143_);fill:#237B69;" d="M98,75.6L98,75.6l3,0
			v0H98z M77.6,77.1h21.9v-3H77.6V77.1z M76.1,60.8v14.9h3V60.8H76.1z M69.7,61.7c1.5-2,2.7-2.7,3.5-2.7c0.7,0,1.8,0.5,3.2,2.6
			l2.5-1.6c-1.5-2.4-3.4-4-5.8-4c-2.2,0.1-4.2,1.7-5.8,3.9L69.7,61.7z M70,86.6V60.8h-3v25.8H70z M57.1,85.5
			c0.1-0.5,0.4-0.7,0.5-0.9c0.2-0.2,0.5-0.3,0.9-0.3c0.9-0.1,2.2,0.2,3.6,0.7c1.4,0.5,2.7,1.2,3.8,1.8c0.5,0.3,0.9,0.5,1.2,0.7
			c0.1,0.1,0.3,0.2,0.3,0.2c0,0,0.1,0,0.1,0.1c0,0,0,0,0,0c0,0,0,0,0,0c0,0,0,0,0,0c0,0,0,0,0,0c0,0,0,0,0.8-1.2
			c0.8-1.2,0.8-1.2,0.8-1.2c0,0,0,0,0,0c0,0,0,0,0,0c0,0,0,0,0,0c0,0,0,0,0,0c0,0-0.1,0-0.1-0.1c-0.1-0.1-0.2-0.1-0.4-0.2
			c-0.3-0.2-0.8-0.5-1.3-0.8c-1.1-0.6-2.6-1.4-4.2-2c-1.6-0.6-3.4-1.1-5-0.9c-0.8,0.1-1.7,0.4-2.5,0.9c-0.8,0.6-1.3,1.4-1.6,2.4
			L57.1,85.5z M67.5,97.5c0.6-1.4,0.6-1.4,0.6-1.4c0,0,0,0,0,0c0,0,0,0,0,0c0,0,0,0,0,0c0,0,0,0,0,0c0,0-0.1,0-0.1-0.1
			c-0.1,0-0.2-0.1-0.4-0.2c-0.4-0.2-0.9-0.5-1.5-0.8c-1.2-0.7-2.8-1.7-4.3-2.8c-1.5-1.1-2.9-2.4-3.8-3.7c-0.9-1.3-1.1-2.3-0.9-3.1
			l-2.9-0.9c-0.7,2.1,0.1,4.1,1.3,5.7c1.2,1.6,2.8,3.1,4.5,4.3c1.7,1.2,3.4,2.3,4.7,3c0.6,0.4,1.2,0.7,1.6,0.9
			c0.2,0.1,0.3,0.2,0.5,0.2c0.1,0,0.1,0,0.1,0.1c0,0,0,0,0,0c0,0,0,0,0,0c0,0,0,0,0,0c0,0,0,0,0,0C66.9,98.9,66.9,98.9,67.5,97.5z
			 M99.4,96H67.5v3h31.9V96z M98,75.6l-0.1,21.8l3,0l0.1-21.8L98,75.6z M99.5,75.6h1.5v-1.5h-1.5V75.6z M77.6,75.6h-1.5v1.5h1.5
			V75.6z M77.6,60.8h1.5v-0.4L78.8,60L77.6,60.8z M68.5,60.8l-1.2-0.9L67,60.3v0.5H68.5z M68.5,86.6l-0.8,1.2l2.3,1.6v-2.8H68.5z
			 M67.5,97.5l-0.6,1.4l0.3,0.1h0.3V97.5z M99.4,97.5V99h1.5l0-1.5L99.4,97.5z M99.5,75.7l1.5,0v0H99.5z"/>
		<path style="clip-path:url(#SVGID_00000036937411010003150980000011870938325846965143_);fill:#237B69;" d="M57,17
			c7.8,0,14,6.1,14,13.5h3C74,21.3,66.3,14,57,14V17z M43,30.5C43,23.1,49.2,17,57,17v-3c-9.3,0-17,7.3-17,16.5H43z M57,44
			c-7.8,0-14-6.1-14-13.5h-3C40,39.7,47.7,47,57,47V44z M71,30.5C71,37.9,64.8,44,57,44v3c9.3,0,17-7.3,17-16.5H71z"/>
		<path style="clip-path:url(#SVGID_00000036937411010003150980000011870938325846965143_);fill:#237B69;" d="M82.8,50.5
			c2.2,2.4,3.2,4.5,3.2,6.5c0,2-0.9,4.1-3.2,6.4l2.1,2.1c2.6-2.6,4-5.5,4-8.5c0-3-1.5-5.9-4-8.6L82.8,50.5z M30.6,51h53.3v-3H30.6
			V51z M31.6,63.4C29,61,28,58.9,28,57c0-1.9,1-4,3.6-6.4l-2-2.2C26.7,51,25,53.9,25,57c0,3.1,1.7,6,4.5,8.6L31.6,63.4z M63.6,63
			h-33v3h33V63z M83.9,49.5l1.1-1L84.5,48h-0.6V49.5z M30.6,49.5V48H30l-0.4,0.4L30.6,49.5z M30.6,64.5l-1,1.1L30,66h0.6V64.5z"/>
		<path style="clip-path:url(#SVGID_00000036937411010003150980000011870938325846965143_);fill:#237B69;" d="M57,25
			c2.2,0,4,1.8,4,4h3c0-3.9-3.1-7-7-7V25z M53,29c0-2.2,1.8-4,4-4v-3c-3.9,0-7,3.1-7,7H53z M57,33c-2.2,0-4-1.8-4-4h-3
			c0,3.9,3.1,7,7,7V33z M61,29c0,2.2-1.8,4-4,4v3c3.9,0,7-3.1,7-7H61z"/>
		<path style="clip-path:url(#SVGID_00000036937411010003150980000011870938325846965143_);fill:#237B69;" d="M60.4,33.8
			c3.3,1.9,5.7,4,6.6,7.1l2.9-0.8c-1.3-4.2-4.5-6.8-8-8.9L60.4,33.8z M51.9,33.7c1.7,1.4,3.5,2.1,5.3,2.1c1.8,0,3.5-0.9,5-2.2
			l-2-2.2c-1.1,1-2.1,1.4-3,1.4c-0.9,0-2-0.4-3.4-1.4L51.9,33.7z M46.9,41.1c0.9-2.3,3.1-4.8,6.8-7.4L52,31.3
			c-3.9,2.7-6.6,5.6-7.8,8.6L46.9,41.1z M61.2,32.5l0.7-1.3L61,30.7l-0.8,0.7L61.2,32.5z M52.8,32.5l1-1.2l-0.9-0.7L52,31.3
			L52.8,32.5z"/>
		<path style="clip-path:url(#SVGID_00000036937411010003150980000011870938325846965143_);fill:#237B69;" d="M34,58.5v-3h-3v3H34z
			 M35.5,57h-3v3h3V57z M34,55.5v3h3v-3H34z M32.5,57h3v-3h-3V57z M32.5,58.5H31V60h1.5V58.5z M35.5,58.5V60H37v-1.5H35.5z
			 M35.5,55.5H37V54h-1.5V55.5z M32.5,55.5V54H31v1.5H32.5z"/>
		<path style="clip-path:url(#SVGID_00000036937411010003150980000011870938325846965143_);fill:#237B69;" d="M41,58.5v-3h-3v3H41z
			 M42.5,57h-3v3h3V57z M41,55.5v3h3v-3H41z M39.5,57h3v-3h-3V57z M39.5,58.5H38V60h1.5V58.5z M42.5,58.5V60H44v-1.5H42.5z
			 M42.5,55.5H44V54h-1.5V55.5z M39.5,55.5V54H38v1.5H39.5z"/>
		<path style="clip-path:url(#SVGID_00000036937411010003150980000011870938325846965143_);fill:#237B69;" d="M48,58.5v-3h-3v3H48z
			 M49.5,57h-3v3h3V57z M48,55.5v3h3v-3H48z M46.5,57h3v-3h-3V57z M46.5,58.5H45V60h1.5V58.5z M49.5,58.5V60H51v-1.5H49.5z
			 M49.5,55.5H51V54h-1.5V55.5z M46.5,55.5V54H45v1.5H46.5z"/>
		<path style="clip-path:url(#SVGID_00000036937411010003150980000011870938325846965143_);fill:#237B69;" d="M56,58.5v-3h-3v3H56z
			 M57.5,57h-3v3h3V57z M56,55.5v3h3v-3H56z M54.5,57h3v-3h-3V57z M54.5,58.5H53V60h1.5V58.5z M57.5,58.5V60H59v-1.5H57.5z
			 M57.5,55.5H59V54h-1.5V55.5z M54.5,55.5V54H53v1.5H54.5z"/>
		<path style="clip-path:url(#SVGID_00000036937411010003150980000011870938325846965143_);fill:#237B69;" d="M63,58.5v-3h-3v3H63z
			 M64.5,57h-3v3h3V57z M63,55.5v3h3v-3H63z M61.5,57h3v-3h-3V57z M61.5,58.5H60V60h1.5V58.5z M64.5,58.5V60H66v-1.5H64.5z
			 M64.5,55.5H66V54h-1.5V55.5z M61.5,55.5V54H60v1.5H61.5z"/>
		<path style="clip-path:url(#SVGID_00000036937411010003150980000011870938325846965143_);fill:#237B69;" d="M79,78.5v-2h-3v2H79z
			 M78.5,77h-1v3h1V77z M77,76.5v2h3v-2H77z M77.5,78h1v-3h-1V78z M77.5,78.5H76V80h1.5V78.5z M78.5,78.5V80H80v-1.5H78.5z
			 M78.5,76.5H80V75h-1.5V76.5z M77.5,76.5V75H76v1.5H77.5z"/>
		<path style="clip-path:url(#SVGID_00000036937411010003150980000011870938325846965143_);fill:#237B69;" d="M87,78.5v-2h-3v2H87z
			 M86.5,77h-1v3h1V77z M85,76.5v2h3v-2H85z M85.5,78h1v-3h-1V78z M85.5,78.5H84V80h1.5V78.5z M86.5,78.5V80H88v-1.5H86.5z
			 M86.5,76.5H88V75h-1.5V76.5z M85.5,76.5V75H84v1.5H85.5z"/>
		<path style="clip-path:url(#SVGID_00000036937411010003150980000011870938325846965143_);fill:#237B69;" d="M94,78.5v-2h-3v2H94z
			 M93.5,77h-1v3h1V77z M92,76.5v2h3v-2H92z M92.5,78h1v-3h-1V78z M92.5,78.5H91V80h1.5V78.5z M93.5,78.5V80H95v-1.5H93.5z
			 M93.5,76.5H95V75h-1.5V76.5z M92.5,76.5V75H91v1.5H92.5z"/>
	</g>
</g>
</svg>
