<?xml version="1.0" encoding="utf-8"?>
<!-- Generator: Adobe Illustrator 26.1.0, SVG Export Plug-In . SVG Version: 6.00 Build 0)  -->
<svg version="1.1" id="Capa_1" xmlns="http://www.w3.org/2000/svg" xmlns:xlink="http://www.w3.org/1999/xlink" x="0px" y="0px"
	 viewBox="0 0 109.8 111" style="enable-background:new 0 0 109.8 111;" xml:space="preserve">
<style type="text/css">
	.st0{clip-path:url(#SVGID_00000153690955257253295910000011792099884060801931_);fill:#237B69;}
	.st1{clip-path:url(#SVGID_00000149366076246786463220000007814848587700495539_);fill:#237B69;}
	.st2{clip-path:url(#SVGID_00000005973611278853263890000008356580323394405287_);fill:#237B69;}
	.st3{clip-path:url(#SVGID_00000016065843195198859550000018414425749734432663_);fill:#237B69;}
	
		.st4{clip-path:url(#SVGID_00000080900518613850643030000011441608844302671252_);fill-rule:evenodd;clip-rule:evenodd;fill:#237B69;}
	
		.st5{clip-path:url(#SVGID_00000175309486471759231630000012098671279334302896_);fill-rule:evenodd;clip-rule:evenodd;fill:#237B69;}
	.st6{clip-path:url(#SVGID_00000047779265194255604160000015435285550381048714_);fill:#237B69;}
	.st7{clip-path:url(#SVGID_00000121989104161665728650000003196992255622934949_);fill:#010202;}
	.st8{clip-path:url(#SVGID_00000029029638305700917990000003905924555529516727_);fill:#010202;}
	.st9{clip-path:url(#SVGID_00000178914975791722445320000013756698574241473198_);fill:#010202;}
	.st10{clip-path:url(#SVGID_00000026860082716394844140000007157850387288802724_);fill:#010202;}
	.st11{clip-path:url(#SVGID_00000021808774167731889460000012638186647361729709_);}
	.st12{clip-path:url(#SVGID_00000174560277439449758600000014757580961534572457_);}
	.st13{clip-path:url(#SVGID_00000126294516349083124820000010282756152739596218_);fill:#010202;}
	.st14{clip-path:url(#SVGID_00000152237244065134543860000000112025494260555407_);}
	.st15{clip-path:url(#SVGID_00000149347175913347559850000000607035188188352190_);}
	.st16{clip-path:url(#SVGID_00000163067939910187444130000001420836998939426468_);}
	.st17{clip-path:url(#SVGID_00000089537714824318520700000014425335090289252783_);}
	.st18{clip-path:url(#SVGID_00000101061202116205230390000000863993937810757524_);fill:#FFFFFF;}
	.st19{clip-path:url(#SVGID_00000088825276845880304550000008898691328953997477_);fill:#FFFFFF;}
	.st20{filter:url(#Adobe_OpacityMaskFilter);}
	.st21{clip-path:url(#SVGID_00000008869889271797469120000011113931454214151570_);}
	.st22{clip-path:url(#SVGID_00000071555722678883893950000012132141603491234239_);fill:#010202;}
	
		.st23{clip-path:url(#SVGID_00000008869889271797469120000011113931454214151570_);mask:url(#SVGID_00000152975899476485250010000001435060733129944751_);}
	.st24{clip-path:url(#SVGID_00000002344141281812569040000004985093404710418106_);fill:#FFFFFF;}
	.st25{clip-path:url(#SVGID_00000085944796527975880290000004516108746383883146_);fill:#010202;}
	.st26{clip-path:url(#SVGID_00000055709362997251851590000011791844752957401498_);fill:#010202;}
	.st27{clip-path:url(#SVGID_00000057119335913889744870000016825743617532536740_);fill:#010202;}
	.st28{clip-path:url(#SVGID_00000167376806644749063410000007369053517071856282_);fill:#010202;}
	
		.st29{clip-path:url(#SVGID_00000012433121132000507710000008431967547890419375_);fill-rule:evenodd;clip-rule:evenodd;fill:#010202;}
	.st30{clip-path:url(#SVGID_00000093888251433260106410000001209570117958658700_);}
	.st31{clip-path:url(#SVGID_00000096738546945744079910000001431458075611296674_);}
	.st32{clip-path:url(#SVGID_00000088822600917934740730000003585890375673437622_);fill:#1D6859;}
	.st33{clip-path:url(#SVGID_00000075871298115364668210000014813295093807353518_);}
	.st34{clip-path:url(#SVGID_00000128467914334249431150000007849528014028472498_);}
	.st35{clip-path:url(#SVGID_00000038385013934654277010000005920845380151648930_);}
	.st36{clip-path:url(#SVGID_00000004521856834682156040000008627376911042881433_);}
	.st37{clip-path:url(#SVGID_00000103980202910035124660000006669619012685767569_);}
	.st38{clip-path:url(#SVGID_00000018237978847489627770000014752092460736581001_);}
	.st39{clip-path:url(#SVGID_00000008111901066219617080000011212128982382634661_);}
	.st40{clip-path:url(#SVGID_00000142160119288677950040000010783494277738141061_);}
	.st41{clip-path:url(#SVGID_00000050651525832023400680000017553708213039977612_);fill:#FFFFFF;}
	.st42{clip-path:url(#SVGID_00000134969261119287546480000010717696734053437111_);fill:#FFFFFF;}
	.st43{clip-path:url(#SVGID_00000127019713854043146370000008941247415302764443_);fill:#FFFFFF;}
	.st44{filter:url(#Adobe_OpacityMaskFilter_00000183245955314901616820000012620688078043941000_);}
	.st45{clip-path:url(#SVGID_00000166674200388899442650000004800089810815434408_);fill:#010202;}
	
		.st46{clip-path:url(#SVGID_00000166674200388899442650000004800089810815434408_);mask:url(#SVGID_00000119821704140511974050000008070030855435775919_);}
	.st47{clip-path:url(#SVGID_00000067199759363601015030000012082310128291791232_);fill:#FFFFFF;}
	.st48{clip-path:url(#SVGID_00000067199759363601015030000012082310128291791232_);fill:#EEF2E6;}
	.st49{clip-path:url(#SVGID_00000067199759363601015030000012082310128291791232_);fill:#237B69;}
	.st50{clip-path:url(#SVGID_00000067199759363601015030000012082310128291791232_);fill:#010202;}
	.st51{filter:url(#Adobe_OpacityMaskFilter_00000046313950206555164310000004048931393934546851_);}
	.st52{clip-path:url(#SVGID_00000067199759363601015030000012082310128291791232_);fill:#D9D9D9;}
	.st53{clip-path:url(#SVGID_00000067199759363601015030000012082310128291791232_);}
	.st54{clip-path:url(#SVGID_00000069370650571843279890000000267410964276968891_);}
	.st55{clip-path:url(#SVGID_00000099664556450894224080000008149668001460659123_);}
	.st56{filter:url(#Adobe_OpacityMaskFilter_00000011007789125726919060000000884020116687425678_);}
	
		.st57{clip-path:url(#SVGID_00000067199759363601015030000012082310128291791232_);mask:url(#SVGID_00000024681344289373534120000002049175906622922915_);}
	.st58{clip-path:url(#SVGID_00000012460089430381180780000008327330404553676726_);}
	.st59{clip-path:url(#SVGID_00000030445825841426835340000003939572977720688795_);}
	.st60{clip-path:url(#SVGID_00000119831592955794062050000006592901996428162176_);}
	.st61{clip-path:url(#SVGID_00000016794293370321381160000017844081516002566809_);fill:#87AE95;}
	.st62{clip-path:url(#SVGID_00000067199759363601015030000012082310128291791232_);enable-background:new    ;}
	.st63{clip-path:url(#SVGID_00000063603172043049327550000012201595976563619516_);fill:#010202;}
	.st64{clip-path:url(#SVGID_00000067199759363601015030000012082310128291791232_);fill:#B0C9B9;}
	.st65{clip-path:url(#SVGID_00000067199759363601015030000012082310128291791232_);fill:#BED3C6;}
	.st66{clip-path:url(#SVGID_00000119797483794157465810000004067477089110625944_);}
	.st67{clip-path:url(#SVGID_00000013893677047409797240000009311331887929679251_);}
	.st68{clip-path:url(#SVGID_00000127747057427962847980000002362945717550344377_);}
	.st69{clip-path:url(#SVGID_00000135671817182449758650000017333176524706054057_);}
	.st70{clip-path:url(#SVGID_00000158739292435493687520000005862685429504810911_);}
	.st71{clip-path:url(#SVGID_00000065066066986217055730000004261346030982360740_);}
	.st72{clip-path:url(#SVGID_00000085965509486653808680000010826012890807691162_);}
	.st73{filter:url(#Adobe_OpacityMaskFilter_00000182514921039539481760000005020635632884535968_);}
	.st74{clip-path:url(#SVGID_00000160165590981774534620000014272370359853483919_);fill:#010202;}
	
		.st75{clip-path:url(#SVGID_00000160165590981774534620000014272370359853483919_);mask:url(#SVGID_00000168807645613082195800000013316833270328841132_);}
	.st76{clip-path:url(#SVGID_00000143595471693470791950000017520487512540627090_);fill:#FFFFFF;}
	.st77{clip-path:url(#SVGID_00000143595471693470791950000017520487512540627090_);fill:#EEF2E6;}
	.st78{clip-path:url(#SVGID_00000143595471693470791950000017520487512540627090_);fill:#237B69;}
	.st79{clip-path:url(#SVGID_00000143595471693470791950000017520487512540627090_);fill:#010202;}
	.st80{filter:url(#Adobe_OpacityMaskFilter_00000145036137605393791950000017248040842881120682_);}
	.st81{clip-path:url(#SVGID_00000143595471693470791950000017520487512540627090_);fill:#D9D9D9;}
	.st82{clip-path:url(#SVGID_00000143595471693470791950000017520487512540627090_);}
	.st83{clip-path:url(#SVGID_00000086673316003528505520000008876336701289786249_);}
	.st84{clip-path:url(#SVGID_00000097471770054441229950000011287009995474490301_);}
	.st85{filter:url(#Adobe_OpacityMaskFilter_00000044864769416573829890000011549962421135514287_);}
	
		.st86{clip-path:url(#SVGID_00000143595471693470791950000017520487512540627090_);mask:url(#SVGID_00000103957263152418888720000004386392520044916914_);}
	.st87{clip-path:url(#SVGID_00000053522491159137096510000006696505754939815100_);}
	.st88{clip-path:url(#SVGID_00000005236769245462257300000002732807159330891658_);}
	.st89{clip-path:url(#SVGID_00000028324271079006131060000018228835823818390433_);}
	.st90{clip-path:url(#SVGID_00000126311657301363318570000004384096605005121215_);fill:#87AE95;}
	.st91{clip-path:url(#SVGID_00000143595471693470791950000017520487512540627090_);enable-background:new    ;}
	.st92{clip-path:url(#SVGID_00000068639974645202077880000014836030871813019544_);fill:#010202;}
	.st93{clip-path:url(#SVGID_00000143595471693470791950000017520487512540627090_);fill:#BED3C6;}
	.st94{clip-path:url(#SVGID_00000160170924403323254530000005013701849168123049_);}
	.st95{clip-path:url(#SVGID_00000159443545733993183600000007734395024413232560_);}
	.st96{clip-path:url(#SVGID_00000064338369472664679330000012148108075193834149_);}
	.st97{clip-path:url(#SVGID_00000044860274312286630190000010192119597632999856_);}
	.st98{clip-path:url(#SVGID_00000121258869250287862100000015231836808091317940_);}
	.st99{clip-path:url(#SVGID_00000170247769674909992780000000737303614785018039_);}
	.st100{clip-path:url(#SVGID_00000065786977631687277260000005527039153329806500_);}
	.st101{clip-path:url(#SVGID_00000145746154088912393420000006353649566019147670_);}
</style>
<g>
	<g>
		<defs>
			<rect id="SVGID_00000151533586181583972770000003121153806707041443_" width="109.8" height="111"/>
		</defs>
		<clipPath id="SVGID_00000053537874056786077800000007064401465811347590_">
			<use xlink:href="#SVGID_00000151533586181583972770000003121153806707041443_"  style="overflow:visible;"/>
		</clipPath>
		<path style="clip-path:url(#SVGID_00000053537874056786077800000007064401465811347590_);fill:#237B69;" d="M3,9
			c0-3.3,2.7-6,6.1-6V0C4.1,0,0,4,0,9H3z M3,79.4V9H0v70.4H3z M9.1,85.5c-3.4,0-6.1-2.7-6.1-6H0c0,5,4.1,9,9.1,9V85.5z M100.7,85.5
			H9.1v3h91.6V85.5z M106.8,79.4c0,3.3-2.7,6-6.1,6v3c5,0,9.1-4,9.1-9H106.8z M106.8,9v70.4h3V9H106.8z M100.7,3
			c3.4,0,6.1,2.7,6.1,6h3c0-5-4.1-9-9.1-9V3z M9.1,3h91.6V0H9.1V3z"/>
		<path style="clip-path:url(#SVGID_00000053537874056786077800000007064401465811347590_);fill:#237B69;" d="M42.2,101.2V87h-3
			v14.2H42.2z M70.3,99.7H40.7v3h29.7V99.7z M68.8,87v14.2h3V87H68.8z M40.7,88.5h29.7v-3H40.7V88.5z M40.7,101.2h-1.5v1.5h1.5
			V101.2z M70.3,101.2v1.5h1.5v-1.5H70.3z M70.3,87h1.5v-1.5h-1.5V87z M40.7,87v-1.5h-1.5V87H40.7z"/>
		<path style="clip-path:url(#SVGID_00000053537874056786077800000007064401465811347590_);fill:#237B69;" d="M33.9,102.8
			C33.9,102.8,33.9,102.8,33.9,102.8c0-0.1,0.1-0.1,0.1-0.1v-3c-1.7,0-3.1,1.3-3.1,3.1H33.9z M33.9,107.9v-5.1h-3v5.1H33.9z M34,108
			c0,0-0.1,0-0.1,0c0,0,0,0,0,0h-3c0,1.7,1.4,3.1,3.1,3.1V108z M78.2,108H34v3h44.2V108z M78.3,107.9
			C78.3,107.9,78.3,107.9,78.3,107.9c0,0.1-0.1,0.1-0.1,0.1v3c1.7,0,3.1-1.3,3.1-3.1H78.3z M78.3,102.8v5.1h3v-5.1H78.3z
			 M78.2,102.7c0,0,0.1,0,0.1,0c0,0,0,0,0,0h3c0-1.7-1.4-3.1-3.1-3.1V102.7z M34,102.7h44.2v-3H34V102.7z"/>
		
			<rect x="53.4" y="19.9" transform="matrix(1.111043e-02 -0.9999 0.9999 1.111043e-02 -19.0011 127.3909)" style="clip-path:url(#SVGID_00000053537874056786077800000007064401465811347590_);fill:#237B69;" width="3" height="106.8"/>
		
			<rect x="1.5" y="17.8" style="clip-path:url(#SVGID_00000053537874056786077800000007064401465811347590_);fill:#237B69;" width="106.8" height="3"/>
		
			<rect x="12.2" y="9.5" style="clip-path:url(#SVGID_00000053537874056786077800000007064401465811347590_);fill:#237B69;" width="5.9" height="3"/>
		
			<rect x="28.8" y="9.5" style="clip-path:url(#SVGID_00000053537874056786077800000007064401465811347590_);fill:#237B69;" width="2.4" height="3"/>
		
			<rect x="21.7" y="9.5" style="clip-path:url(#SVGID_00000053537874056786077800000007064401465811347590_);fill:#237B69;" width="2.4" height="3"/>
		<path style="clip-path:url(#SVGID_00000053537874056786077800000007064401465811347590_);fill:#237B69;" d="M25.5,43V26.4h-3V43
			H25.5z M40.7,41.5H24v3h16.6V41.5z M39.2,26.4V43h3V26.4H39.2z M24,27.9h16.6v-3H24V27.9z M24,43h-1.5v1.5H24V43z M40.7,43v1.5
			h1.5V43H40.7z M40.7,26.4h1.5v-1.5h-1.5V26.4z M24,26.4v-1.5h-1.5v1.5H24z"/>
		<path style="clip-path:url(#SVGID_00000053537874056786077800000007064401465811347590_);fill:#237B69;" d="M25.5,65.6V47.8h-3
			v17.8H25.5z M40.7,64.1H24v3h16.6V64.1z M39.2,47.8v17.8h3V47.8H39.2z M24,49.3h16.6v-3H24V49.3z M24,65.6h-1.5v1.5H24V65.6z
			 M40.7,65.6v1.5h1.5v-1.5H40.7z M40.7,47.8h1.5v-1.5h-1.5V47.8z M24,47.8v-1.5h-1.5v1.5H24z"/>
		
			<rect x="51.3" y="28.5" style="clip-path:url(#SVGID_00000053537874056786077800000007064401465811347590_);fill:#237B69;" width="9.5" height="3"/>
		
			<rect x="68" y="28.5" style="clip-path:url(#SVGID_00000053537874056786077800000007064401465811347590_);fill:#237B69;" width="11.9" height="3"/>
		
			<rect x="84.6" y="28.5" style="clip-path:url(#SVGID_00000053537874056786077800000007064401465811347590_);fill:#237B69;" width="3.6" height="3"/>
		
			<rect x="51.3" y="38" style="clip-path:url(#SVGID_00000053537874056786077800000007064401465811347590_);fill:#237B69;" width="22.5" height="3"/>
		
			<rect x="77.5" y="38" style="clip-path:url(#SVGID_00000053537874056786077800000007064401465811347590_);fill:#237B69;" width="10.7" height="3"/>
		
			<rect x="51.3" y="51" style="clip-path:url(#SVGID_00000053537874056786077800000007064401465811347590_);fill:#237B69;" width="16.6" height="3"/>
		
			<rect x="73.9" y="51" style="clip-path:url(#SVGID_00000053537874056786077800000007064401465811347590_);fill:#237B69;" width="3.6" height="3"/>
		
			<rect x="82.2" y="51" style="clip-path:url(#SVGID_00000053537874056786077800000007064401465811347590_);fill:#237B69;" width="3.6" height="3"/>
		
			<rect x="51.3" y="60.5" style="clip-path:url(#SVGID_00000053537874056786077800000007064401465811347590_);fill:#237B69;" width="22.5" height="3"/>
		
			<rect x="77.5" y="60.5" style="clip-path:url(#SVGID_00000053537874056786077800000007064401465811347590_);fill:#237B69;" width="8.3" height="3"/>
		
			<rect x="96.4" y="79.5" style="clip-path:url(#SVGID_00000053537874056786077800000007064401465811347590_);fill:#237B69;" width="4.7" height="3"/>
	</g>
</g>
</svg>
