<?xml version="1.0" encoding="utf-8"?>
<!-- Generator: Adobe Illustrator 26.1.0, SVG Export Plug-In . SVG Version: 6.00 Build 0)  -->
<svg version="1.1" id="Capa_1" xmlns="http://www.w3.org/2000/svg" xmlns:xlink="http://www.w3.org/1999/xlink" x="0px" y="0px"
	 viewBox="0 0 110.5 114.3" style="enable-background:new 0 0 110.5 114.3;" xml:space="preserve">
<style type="text/css">
	.st0{clip-path:url(#SVGID_00000137829146647710816940000008575215137193952950_);fill:#237B69;}
	.st1{clip-path:url(#SVGID_00000121997403379905614550000009396803208881366192_);fill:#237B69;}
	.st2{clip-path:url(#SVGID_00000135657202960040589350000014605488386838517172_);fill:#237B69;}
	.st3{clip-path:url(#SVGID_00000141422832763618748940000013955751105388208005_);fill:#237B69;}
	
		.st4{clip-path:url(#SVGID_00000029762965094820311970000002661414231530101157_);fill-rule:evenodd;clip-rule:evenodd;fill:#237B69;}
	
		.st5{clip-path:url(#SVGID_00000095336950455133526370000008990894207781726592_);fill-rule:evenodd;clip-rule:evenodd;fill:#237B69;}
	.st6{clip-path:url(#SVGID_00000100355236400351251930000015457057411445664665_);fill:#237B69;}
	.st7{clip-path:url(#SVGID_00000135670555445231761370000009537241733423054766_);fill:#010202;}
	.st8{clip-path:url(#SVGID_00000011032000593729366060000001727151070668705186_);fill:#010202;}
	.st9{clip-path:url(#SVGID_00000122682956665291947740000012607934346344456098_);fill:#010202;}
	.st10{clip-path:url(#SVGID_00000166658887371311457080000003700619345329882256_);fill:#010202;}
	.st11{clip-path:url(#SVGID_00000066511386729611363220000001953641719290992049_);}
	.st12{clip-path:url(#SVGID_00000034062571742763911730000017142296507422457483_);}
	.st13{clip-path:url(#SVGID_00000049901552949709222540000012712023551107629490_);fill:#010202;}
	.st14{clip-path:url(#SVGID_00000176723734650405221990000000102620974608758695_);}
	.st15{clip-path:url(#SVGID_00000076597664413322695430000001061375325317925804_);}
	.st16{clip-path:url(#SVGID_00000119086835207319979260000016853804489494668970_);}
	.st17{clip-path:url(#SVGID_00000177468184235184645980000005503816408435452597_);}
	.st18{clip-path:url(#SVGID_00000105405615022900684010000015530543861771142327_);fill:#FFFFFF;}
	.st19{clip-path:url(#SVGID_00000141419947036422021200000000075079682919815563_);fill:#FFFFFF;}
	.st20{filter:url(#Adobe_OpacityMaskFilter);}
	.st21{clip-path:url(#SVGID_00000107576683573064425500000010233382027830125742_);}
	.st22{clip-path:url(#SVGID_00000037684474823358983710000011503691460304350358_);fill:#010202;}
	
		.st23{clip-path:url(#SVGID_00000107576683573064425500000010233382027830125742_);mask:url(#SVGID_00000183218540496837290130000005498806209507790515_);}
	.st24{clip-path:url(#SVGID_00000061471101960474152230000010871514899336147588_);fill:#FFFFFF;}
	.st25{clip-path:url(#SVGID_00000150798895505011521510000012881862513675909816_);fill:#010202;}
	.st26{clip-path:url(#SVGID_00000021802149163694500590000009988637028544176797_);fill:#010202;}
	.st27{clip-path:url(#SVGID_00000119823280546084176780000009969498325644758716_);fill:#010202;}
	.st28{clip-path:url(#SVGID_00000033361023914182758410000001823760369361109408_);fill:#010202;}
	
		.st29{clip-path:url(#SVGID_00000079445552639697510890000016860921060611342467_);fill-rule:evenodd;clip-rule:evenodd;fill:#010202;}
	.st30{clip-path:url(#SVGID_00000071556576914422128980000014465086424995574934_);}
	.st31{clip-path:url(#SVGID_00000106148862493314002820000004998783758248387462_);}
	.st32{clip-path:url(#SVGID_00000137846790158651300920000003253289353768844962_);fill:#1D6859;}
	.st33{clip-path:url(#SVGID_00000176728052348316112290000006309858337512166847_);}
	.st34{clip-path:url(#SVGID_00000140729711225399615720000007571816221310611894_);}
	.st35{clip-path:url(#SVGID_00000077302055789506125550000003713760567240678049_);}
	.st36{clip-path:url(#SVGID_00000059290004682171160990000016990268077321014678_);}
	.st37{clip-path:url(#SVGID_00000106857937464353498230000005941802832361973922_);}
	.st38{clip-path:url(#SVGID_00000165916832775621251090000006942562642887466368_);}
	.st39{clip-path:url(#SVGID_00000018204019087256880560000018023501777193663878_);}
	.st40{clip-path:url(#SVGID_00000070815302465301946130000000583644350545019552_);}
	.st41{clip-path:url(#SVGID_00000019662698756064705030000006978761681491955627_);fill:#FFFFFF;}
	.st42{clip-path:url(#SVGID_00000061431625207747420590000011853246598828516247_);fill:#FFFFFF;}
	.st43{clip-path:url(#SVGID_00000078764362038194805240000002893500501175545279_);fill:#FFFFFF;}
	.st44{filter:url(#Adobe_OpacityMaskFilter_00000052786400468436472040000014185437967112282256_);}
	.st45{clip-path:url(#SVGID_00000062176009997574110580000016765567891179432115_);fill:#010202;}
	
		.st46{clip-path:url(#SVGID_00000062176009997574110580000016765567891179432115_);mask:url(#SVGID_00000101095269049732419800000000490322911603663018_);}
	.st47{clip-path:url(#SVGID_00000176001532064193307860000014531228720697502640_);fill:#FFFFFF;}
	.st48{clip-path:url(#SVGID_00000176001532064193307860000014531228720697502640_);fill:#EEF2E6;}
	.st49{clip-path:url(#SVGID_00000176001532064193307860000014531228720697502640_);fill:#237B69;}
	.st50{clip-path:url(#SVGID_00000176001532064193307860000014531228720697502640_);fill:#010202;}
	.st51{filter:url(#Adobe_OpacityMaskFilter_00000048485152404241654480000008784364887418462395_);}
	.st52{clip-path:url(#SVGID_00000176001532064193307860000014531228720697502640_);fill:#D9D9D9;}
	.st53{clip-path:url(#SVGID_00000176001532064193307860000014531228720697502640_);}
	.st54{clip-path:url(#SVGID_00000169552001084134503330000008821045578408311224_);}
	.st55{clip-path:url(#SVGID_00000115498601527559170150000011046904285062042543_);}
	.st56{filter:url(#Adobe_OpacityMaskFilter_00000106832197682549869210000009324663047970916261_);}
	
		.st57{clip-path:url(#SVGID_00000176001532064193307860000014531228720697502640_);mask:url(#SVGID_00000031904020659581406230000015193781824805954460_);}
	.st58{clip-path:url(#SVGID_00000107579772416127164300000012768874339425639562_);}
	.st59{clip-path:url(#SVGID_00000125583624107471495350000012577392973409935801_);}
	.st60{clip-path:url(#SVGID_00000178190580846788306390000005299906827669741726_);}
	.st61{clip-path:url(#SVGID_00000065767005085499181380000001165012318667668145_);fill:#87AE95;}
	.st62{clip-path:url(#SVGID_00000176001532064193307860000014531228720697502640_);enable-background:new    ;}
	.st63{clip-path:url(#SVGID_00000109748476136257171530000011270778123895555979_);fill:#010202;}
	.st64{clip-path:url(#SVGID_00000176001532064193307860000014531228720697502640_);fill:#B0C9B9;}
	.st65{clip-path:url(#SVGID_00000176001532064193307860000014531228720697502640_);fill:#BED3C6;}
	.st66{clip-path:url(#SVGID_00000143595363581954140540000008085554037214236083_);}
	.st67{clip-path:url(#SVGID_00000146482124447187301680000009302331408766246837_);}
	.st68{clip-path:url(#SVGID_00000106134814127913037100000004997964334951276932_);}
	.st69{clip-path:url(#SVGID_00000178178902108804507720000000017339097542839478_);}
	.st70{clip-path:url(#SVGID_00000106860160590123612760000017250642359197777298_);}
	.st71{clip-path:url(#SVGID_00000034810805769885366950000011661716674447338630_);}
	.st72{clip-path:url(#SVGID_00000010301690875280387950000007872378353507365263_);}
	.st73{filter:url(#Adobe_OpacityMaskFilter_00000075142153401240404140000015636556195342407081_);}
	.st74{clip-path:url(#SVGID_00000016056092900345538050000012823048576072057760_);fill:#010202;}
	
		.st75{clip-path:url(#SVGID_00000016056092900345538050000012823048576072057760_);mask:url(#SVGID_00000170961594774098444480000017683235375806390431_);}
	.st76{clip-path:url(#SVGID_00000148653432070431445400000014474982001804574890_);fill:#FFFFFF;}
	.st77{clip-path:url(#SVGID_00000148653432070431445400000014474982001804574890_);fill:#EEF2E6;}
	.st78{clip-path:url(#SVGID_00000148653432070431445400000014474982001804574890_);fill:#237B69;}
	.st79{clip-path:url(#SVGID_00000148653432070431445400000014474982001804574890_);fill:#010202;}
	.st80{filter:url(#Adobe_OpacityMaskFilter_00000127734138308598486430000009091115044019078060_);}
	.st81{clip-path:url(#SVGID_00000148653432070431445400000014474982001804574890_);fill:#D9D9D9;}
	.st82{clip-path:url(#SVGID_00000148653432070431445400000014474982001804574890_);}
	.st83{clip-path:url(#SVGID_00000066501771683148430720000007822216353090573750_);}
	.st84{clip-path:url(#SVGID_00000126303990995421503270000017025440134787810217_);}
	.st85{filter:url(#Adobe_OpacityMaskFilter_00000002342626234715007860000009711493992922578076_);}
	
		.st86{clip-path:url(#SVGID_00000148653432070431445400000014474982001804574890_);mask:url(#SVGID_00000061465010476670469220000003109941192820403631_);}
	.st87{clip-path:url(#SVGID_00000086685198796187869410000002342537594106475704_);}
	.st88{clip-path:url(#SVGID_00000003820712948421026500000000127480906735649169_);}
	.st89{clip-path:url(#SVGID_00000168074349761839800980000000176200228667543472_);}
	.st90{clip-path:url(#SVGID_00000179637927286894332630000011361859181378550456_);fill:#87AE95;}
	.st91{clip-path:url(#SVGID_00000148653432070431445400000014474982001804574890_);enable-background:new    ;}
	.st92{clip-path:url(#SVGID_00000104704650649442014920000003853780256873048997_);fill:#010202;}
	.st93{clip-path:url(#SVGID_00000148653432070431445400000014474982001804574890_);fill:#BED3C6;}
	.st94{clip-path:url(#SVGID_00000054231978955095735570000013682293810657751983_);}
	.st95{clip-path:url(#SVGID_00000022527113069843458550000015751299251164996013_);}
	.st96{clip-path:url(#SVGID_00000007406722383496260950000002961021799372208529_);}
	.st97{clip-path:url(#SVGID_00000059299338630282347200000000276614344447023281_);}
	.st98{clip-path:url(#SVGID_00000071537986087245596420000013972593016440643759_);}
	.st99{clip-path:url(#SVGID_00000099619787507405381350000013869966611804664234_);}
	.st100{clip-path:url(#SVGID_00000023278701629201405950000004160481594024238257_);}
	.st101{clip-path:url(#SVGID_00000030466338883839049810000008571877872191067055_);}
</style>
<g>
	<g>
		<defs>
			<rect id="SVGID_00000036954143682340892830000012300868190410151607_" width="110.5" height="114.3"/>
		</defs>
		<clipPath id="SVGID_00000085935519713314725750000012054580418222230935_">
			<use xlink:href="#SVGID_00000036954143682340892830000012300868190410151607_"  style="overflow:visible;"/>
		</clipPath>
		<path style="clip-path:url(#SVGID_00000085935519713314725750000012054580418222230935_);fill:#237B69;" d="M93.2,83.3
			c0-0.4-0.2-3.4-0.5-7.3c-0.3-4-0.7-9.3-1.2-14.4c-0.4-5.2-0.8-10.3-1.2-14.2c-0.2-1.9-0.3-3.5-0.4-4.6c0-0.6-0.1-1-0.1-1.3
			c0-0.1,0-0.3,0-0.3c0,0,0-0.1,0-0.1c0,0,0,0,0,0c0,0,0,0,0,0c0,0,0,0,0,0s0,0-1.5,0.1s-1.5,0.1-1.5,0.1c0,0,0,0,0,0c0,0,0,0,0,0
			c0,0,0,0,0,0c0,0,0,0,0,0.1c0,0.1,0,0.2,0,0.3c0,0.3,0.1,0.7,0.1,1.3c0.1,1.1,0.2,2.7,0.4,4.6c0.3,3.8,0.7,9,1.2,14.2
			c0.4,5.2,0.8,10.4,1.2,14.4c0.2,2,0.3,3.7,0.4,5c0,0.6,0.1,1.1,0.1,1.5c0,0.2,0,0.3,0,0.4c0,0.1,0,0.1,0,0.1c0,0,0,0,0,0H93.2z
			 M79.9,98.2c0.5,0,0.9-0.2,1.1-0.3c0.3-0.1,0.5-0.3,0.8-0.5c0.5-0.4,1.1-0.9,1.7-1.5c1.2-1.2,2.7-2.8,4.1-4.4
			c1.4-1.6,2.7-3.3,3.7-4.6c0.5-0.7,0.9-1.3,1.2-1.8c0.2-0.3,0.3-0.5,0.4-0.8c0.1-0.2,0.2-0.6,0.2-1h-3c0-0.2,0.1-0.4,0-0.2
			c0,0.1-0.1,0.2-0.2,0.4c-0.2,0.4-0.6,1-1.1,1.6c-0.9,1.3-2.2,2.9-3.6,4.5c-1.4,1.6-2.7,3.1-3.9,4.2c-0.6,0.6-1.1,1-1.4,1.3
			c-0.2,0.1-0.3,0.2-0.4,0.3c-0.1,0.1,0,0,0.3,0V98.2z M45.4,98.2h34.5v-3H45.4V98.2z M41.1,93c-1.4,0.6-1.4,0.6-1.4,0.6
			c0,0,0,0,0,0c0,0,0,0,0,0c0,0,0,0,0,0c0,0,0,0,0,0c0,0,0,0,0,0c0,0,0,0.1,0.1,0.1c0.1,0.1,0.2,0.3,0.3,0.5c0.2,0.4,0.6,0.9,1,1.4
			c0.8,1,2.3,2.4,4.3,2.4v-3c-0.6,0-1.3-0.5-2-1.3c-0.3-0.4-0.6-0.8-0.7-1c-0.1-0.1-0.1-0.3-0.2-0.3c0,0,0-0.1,0-0.1c0,0,0,0,0,0
			c0,0,0,0,0,0c0,0,0,0,0,0c0,0,0,0,0,0c0,0,0,0,0,0C42.4,92.4,42.4,92.4,41.1,93z"/>
		<path style="clip-path:url(#SVGID_00000085935519713314725750000012054580418222230935_);fill:#237B69;" d="M55.6,60.9l0.5,24.2
			l3-0.1l-0.5-24.2L55.6,60.9z M12.3,62.3h44.8v-3H12.3V62.3z M3,73.3c0-5,2.4-7.7,4.7-9.2c1.2-0.8,2.4-1.2,3.3-1.5
			c0.5-0.1,0.8-0.2,1.1-0.3c0.1,0,0.2,0,0.3,0c0,0,0.1,0,0.1,0c0,0,0,0,0,0c0,0,0,0,0,0c0,0,0,0,0,0c0,0,0,0,0,0c0,0,0,0-0.2-1.5
			s-0.2-1.5-0.2-1.5c0,0,0,0,0,0c0,0,0,0,0,0c0,0,0,0,0,0c0,0,0,0,0,0c0,0-0.1,0-0.1,0c-0.1,0-0.2,0-0.4,0.1
			c-0.3,0.1-0.8,0.2-1.4,0.3c-1.1,0.3-2.6,0.9-4.1,1.8C3,63.5,0,67.1,0,73.3H3z M9.2,86.8c0.4-1.4,0.4-1.4,0.4-1.4c0,0,0,0,0,0
			c0,0,0,0,0,0c0,0,0,0,0,0c0,0,0,0,0,0c0,0,0,0,0,0c0,0-0.1,0-0.2-0.1c-0.2-0.1-0.4-0.2-0.7-0.3c-0.6-0.3-1.4-0.9-2.3-1.7
			C4.8,81.5,3,78.5,3,73.3H0c0,6,2.1,9.8,4.3,12c1.1,1.1,2.2,1.8,3,2.3c0.4,0.2,0.8,0.4,1,0.5c0.1,0.1,0.2,0.1,0.3,0.1
			c0,0,0.1,0,0.1,0c0,0,0,0,0,0c0,0,0,0,0,0c0,0,0,0,0,0c0,0,0,0,0,0C8.8,88.2,8.8,88.2,9.2,86.8z M78.3,85.3H9.2v3h69.1V85.3z
			 M81.6,79.7c0,0,0,0.1-0.1,0.3c-0.1,0.2-0.2,0.5-0.3,0.8c-0.3,0.7-0.6,1.4-1,2.2c-0.4,0.7-0.9,1.4-1.3,1.8
			c-0.5,0.5-0.7,0.5-0.6,0.5v3c1.2,0,2.1-0.7,2.7-1.3c0.7-0.7,1.3-1.6,1.8-2.4c0.5-0.9,0.9-1.8,1.3-2.6c0.3-0.7,0.5-1.6,0.5-2.3
			H81.6z M79.5,41.1C78,41.2,78,41.2,78,41.2c0,0,0,0,0,0c0,0,0,0,0,0c0,0,0,0,0,0c0,0,0,0,0,0.1c0,0.1,0,0.2,0,0.3
			c0,0.3,0.1,0.7,0.1,1.2c0.1,1,0.2,2.5,0.4,4.2c0.3,3.5,0.8,8.2,1.2,12.9c0.5,4.7,0.9,9.5,1.2,13.2c0.2,1.8,0.3,3.4,0.4,4.6
			c0,0.6,0.1,1,0.1,1.4c0,0.2,0,0.3,0,0.4c0,0.1,0,0.2,0,0.1h3c0-0.3-0.1-1.1-0.2-2.2c-0.1-1.2-0.2-2.7-0.4-4.6
			c-0.3-3.7-0.8-8.5-1.2-13.2c-0.5-4.7-0.9-9.4-1.2-12.9c-0.2-1.8-0.3-3.2-0.4-4.2c0-0.5-0.1-0.9-0.1-1.2c0-0.1,0-0.2,0-0.3
			c0,0,0-0.1,0-0.1c0,0,0,0,0,0c0,0,0,0,0,0c0,0,0,0,0,0C81,40.9,81,40.9,79.5,41.1z M57.1,60.8l1.5,0l0-1.5h-1.5V60.8z M12.3,60.8
			v-1.5h-0.1l-0.1,0L12.3,60.8z M9.2,86.8l-0.4,1.4L9,88.3h0.2V86.8z"/>
		<path style="clip-path:url(#SVGID_00000085935519713314725750000012054580418222230935_);fill:#237B69;" d="M84.3,22.8
			c3.5,0,6.6,1,8.7,2.6c2.2,1.6,3.4,3.6,3.4,5.8h3c0-3.3-1.9-6.2-4.6-8.2c-2.7-2-6.5-3.2-10.5-3.2V22.8z M72.2,31.2
			c0-2.1,1.2-4.2,3.4-5.8c2.2-1.6,5.3-2.6,8.7-2.6v-3c-4,0-7.8,1.2-10.5,3.2c-2.7,2-4.6,4.9-4.6,8.2H72.2z M84.3,39.6
			c-3.5,0-6.6-1-8.7-2.6c-2.2-1.6-3.4-3.6-3.4-5.8h-3c0,3.3,1.9,6.2,4.6,8.2c2.7,2,6.5,3.2,10.5,3.2V39.6z M96.4,31.2
			c0,2.1-1.2,4.2-3.4,5.8c-2.2,1.6-5.3,2.6-8.7,2.6v3c4,0,7.8-1.2,10.5-3.2c2.7-2,4.6-4.9,4.6-8.2H96.4z"/>
		<path style="clip-path:url(#SVGID_00000085935519713314725750000012054580418222230935_);fill:#237B69;" d="M36.1,109.3
			c3-3.9,4.8-7.9,5.1-11.8c0.4-4-0.8-7.9-3.5-11.6l-2.4,1.8c2.3,3.2,3.2,6.4,2.9,9.6c-0.3,3.2-1.8,6.7-4.5,10.3L36.1,109.3z
			 M17.8,111.4c7,2.8,13.6,1.5,18.1-1.8l-1.8-2.4c-3.7,2.7-9.1,3.9-15.2,1.4L17.8,111.4z M12.9,85.9c-3,4.3-4.7,8.8-4.2,13.2
			c0.5,4.5,3.4,8.5,8.7,12.2l1.7-2.5c-4.9-3.3-7-6.7-7.4-10.1c-0.4-3.4,0.9-7.1,3.7-11.1L12.9,85.9z M34.9,108.4l0.9,1.2l0.2-0.1
			l0.1-0.2L34.9,108.4z M18.3,110.1l-0.8,1.2l0.1,0.1l0.1,0.1L18.3,110.1z"/>
		<path style="clip-path:url(#SVGID_00000085935519713314725750000012054580418222230935_);fill:#237B69;" d="M110.5,95.8
			c-1.2-4.9-3.1-8.9-6-11.8c-2.9-2.9-6.6-4.6-11.2-4.9l-0.2,3c3.9,0.3,6.9,1.7,9.3,4c2.4,2.4,4.1,5.8,5.2,10.4L110.5,95.8z
			 M107.7,105.3c1.7-2.7,2.7-5.8,2.9-9.1l-3-0.1c-0.1,2.7-1,5.3-2.4,7.6L107.7,105.3z M100.7,111.6c2.8-1.4,5.2-3.6,6.9-6.3
			l-2.5-1.6c-1.4,2.3-3.4,4.1-5.8,5.3L100.7,111.6z M77.9,96.4c1,5.7,3.1,10.7,6.9,13.8c3.9,3.1,9.1,3.8,15.7,1.5l-1-2.8
			c-5.9,2-10,1.2-12.9-1.1c-2.9-2.3-4.9-6.5-5.8-11.9L77.9,96.4z M109,96.1l1.5,0.1l0-0.2l-0.1-0.2L109,96.1z M100,110.3l0.5,1.4
			l0.1,0l0.1,0L100,110.3z"/>
		<path style="clip-path:url(#SVGID_00000085935519713314725750000012054580418222230935_);fill:#237B69;" d="M12.9,60.8v-47h-3v47
			H12.9z M57.1,59.3H11.4v3h45.7V59.3z M55.6,13.9v47h3v-47H55.6z M11.4,15.4h45.7v-3H11.4V15.4z M11.4,60.8H9.9v1.5h1.5V60.8z
			 M57.1,60.8v1.5h1.5v-1.5H57.1z M57.1,13.9h1.5v-1.5h-1.5V13.9z M11.4,13.9v-1.5H9.9v1.5H11.4z"/>
		<path style="clip-path:url(#SVGID_00000085935519713314725750000012054580418222230935_);fill:#237B69;" d="M25.8,3.5
			C26.1,3.2,26.6,3,27.1,3l0-3c-1.3,0-2.5,0.5-3.4,1.4L25.8,3.5z M25.2,4.7c0-0.4,0.2-0.9,0.5-1.2l-2.1-2.2
			c-0.9,0.9-1.4,2.1-1.4,3.3L25.2,4.7z M25.2,13.9V4.7h-3v9.2H25.2z M48.5,12.4H23.7v3h24.7V12.4z M47,4.7v9.2h3V4.7H47z M46.8,4.1
			C46.9,4.3,47,4.5,47,4.7h3c0-0.6-0.1-1.2-0.4-1.8L46.8,4.1z M46.4,3.5c0.2,0.2,0.3,0.4,0.4,0.6l2.8-1.2c-0.2-0.6-0.6-1.1-1.1-1.5
			L46.4,3.5z M45.8,3.1c0.2,0.1,0.4,0.2,0.6,0.4l2.1-2.2c-0.5-0.4-1-0.8-1.6-1L45.8,3.1z M45.1,3c0.3,0,0.5,0,0.7,0.1L47,0.3
			C46.4,0.1,45.7,0,45.1,0V3z M27.1,3h18V0h-18V3z M23.7,4.7l-1.5,0v0H23.7z M23.7,13.9h-1.5v1.5h1.5V13.9z M48.5,13.9v1.5H50v-1.5
			H48.5z"/>
		<path style="clip-path:url(#SVGID_00000085935519713314725750000012054580418222230935_);fill:#237B69;" d="M63.9,36.4h7.6v-3
			h-7.6V36.4z M62.8,25.2c-1.4,1.6-2.2,3.4-2.2,5.3c0,1.9,0.8,3.7,2.2,5.3l2.3-2c-1.1-1.2-1.5-2.4-1.5-3.3c0-1,0.4-2.1,1.5-3.4
			L62.8,25.2z M71.9,24.7h-8v3h8V24.7z M63.9,34.9l-1.1,1l0.4,0.5h0.7V34.9z M63.9,26.2v-1.5h-0.7l-0.4,0.5L63.9,26.2z"/>
		
			<rect x="10.2" y="95.2" style="clip-path:url(#SVGID_00000085935519713314725750000012054580418222230935_);fill:#237B69;" width="28.4" height="3"/>
		
			<rect x="79.4" y="95.2" style="clip-path:url(#SVGID_00000085935519713314725750000012054580418222230935_);fill:#237B69;" width="29.7" height="3"/>
		<path style="clip-path:url(#SVGID_00000085935519713314725750000012054580418222230935_);fill:#237B69;" d="M86.5,96.8
			c0.4,5.6,4,8.8,7.9,8.8c1.9,0,3.8-0.8,5.2-2.4c1.4-1.6,2.2-3.8,2.2-6.5h-3c0,2.1-0.6,3.6-1.5,4.5c-0.8,0.9-1.9,1.4-3,1.4
			c-2.1,0-4.6-1.7-4.9-6L86.5,96.8z"/>
		<path style="clip-path:url(#SVGID_00000085935519713314725750000012054580418222230935_);fill:#237B69;" d="M17.3,95.5
			c0.4,5.6,4,8.8,7.9,8.8c1.9,0,3.8-0.8,5.2-2.4c1.4-1.6,2.2-3.8,2.2-6.5h-3c0,2.1-0.6,3.6-1.5,4.5c-0.8,0.9-1.9,1.4-3,1.4
			c-2.1,0-4.6-1.7-4.9-6L17.3,95.5z"/>
	</g>
</g>
</svg>
