<?xml version="1.0" encoding="utf-8"?>
<!-- Generator: Adobe Illustrator 26.1.0, SVG Export Plug-In . SVG Version: 6.00 Build 0)  -->
<svg version="1.1" id="Capa_1" xmlns="http://www.w3.org/2000/svg" xmlns:xlink="http://www.w3.org/1999/xlink" x="0px" y="0px"
	 viewBox="0 0 113.1 110" style="enable-background:new 0 0 113.1 110;" xml:space="preserve">
<style type="text/css">
	.st0{clip-path:url(#SVGID_00000070084654826193895480000016047992871576597934_);fill:#237B69;}
	.st1{clip-path:url(#SVGID_00000090281104188330719700000005630769793740323514_);fill:#237B69;}
	.st2{clip-path:url(#SVGID_00000164495919682311607070000009284563030709660074_);fill:#237B69;}
	.st3{clip-path:url(#SVGID_00000109713849424452475370000005216480127968193463_);fill:#237B69;}
	
		.st4{clip-path:url(#SVGID_00000096748447725438522450000005899489625781128345_);fill-rule:evenodd;clip-rule:evenodd;fill:#237B69;}
	
		.st5{clip-path:url(#SVGID_00000030460998661140688450000007672917336988836744_);fill-rule:evenodd;clip-rule:evenodd;fill:#237B69;}
	.st6{clip-path:url(#SVGID_00000001660049585433024170000009837867643365712809_);fill:#237B69;}
	.st7{clip-path:url(#SVGID_00000155829751147488965480000002232787629042007953_);fill:#010202;}
	.st8{clip-path:url(#SVGID_00000150780646274781084880000007375446609016364708_);fill:#010202;}
	.st9{clip-path:url(#SVGID_00000048470499278715971590000005201764426348174005_);fill:#010202;}
	.st10{clip-path:url(#SVGID_00000084490990933673296920000011629952039613550995_);fill:#010202;}
	.st11{clip-path:url(#SVGID_00000023999232746833519960000007328463887285896634_);}
	.st12{clip-path:url(#SVGID_00000180353296804199642120000013448349221785918612_);}
	.st13{clip-path:url(#SVGID_00000172404238363356423800000011288718650097632676_);fill:#010202;}
	.st14{clip-path:url(#SVGID_00000021080998585956311310000007351468203587157400_);}
	.st15{clip-path:url(#SVGID_00000160169969188504961990000010013692771809169561_);}
	.st16{clip-path:url(#SVGID_00000009569457367359423260000018356395379877363874_);}
	.st17{clip-path:url(#SVGID_00000177448508734843139780000000912730995556135351_);}
	.st18{clip-path:url(#SVGID_00000103974268660070609520000005903633853859860661_);fill:#FFFFFF;}
	.st19{clip-path:url(#SVGID_00000082331688211168660780000009070889377953867443_);fill:#FFFFFF;}
	.st20{filter:url(#Adobe_OpacityMaskFilter);}
	.st21{clip-path:url(#SVGID_00000100351021615056272570000016129471430281726651_);}
	.st22{clip-path:url(#SVGID_00000018927472906678266520000011725598030640645027_);fill:#010202;}
	
		.st23{clip-path:url(#SVGID_00000100351021615056272570000016129471430281726651_);mask:url(#SVGID_00000142170352525608303930000012436064006586561971_);}
	.st24{clip-path:url(#SVGID_00000102512689401325340360000000435121268320990082_);fill:#FFFFFF;}
	.st25{clip-path:url(#SVGID_00000034808683225598988450000016524306924507921302_);fill:#010202;}
	.st26{clip-path:url(#SVGID_00000177461465929399694100000017019507976558337419_);fill:#010202;}
	.st27{clip-path:url(#SVGID_00000111885579206718827280000003271490171630800018_);fill:#010202;}
	.st28{clip-path:url(#SVGID_00000005248660374009032740000014334997156966950295_);fill:#010202;}
	
		.st29{clip-path:url(#SVGID_00000008843303276551171790000004486050311528702905_);fill-rule:evenodd;clip-rule:evenodd;fill:#010202;}
	.st30{clip-path:url(#SVGID_00000170251805529794162400000009533625412020673935_);}
	.st31{clip-path:url(#SVGID_00000089566712689629419010000012918140832707934360_);}
	.st32{clip-path:url(#SVGID_00000008148087248124817850000007597207123444371129_);fill:#1D6859;}
	.st33{clip-path:url(#SVGID_00000093875358905995892000000011373982829457104038_);}
	.st34{clip-path:url(#SVGID_00000018237683369215711190000003874485404479828642_);}
	.st35{clip-path:url(#SVGID_00000128475977811626131160000013413848489325414075_);}
	.st36{clip-path:url(#SVGID_00000160185688735579768090000017928529887503430016_);}
	.st37{clip-path:url(#SVGID_00000153684713712810937230000002661869342453540760_);}
	.st38{clip-path:url(#SVGID_00000025415212027850880980000013147901468168918184_);}
	.st39{clip-path:url(#SVGID_00000124867464120013019590000013954358681578671259_);}
	.st40{clip-path:url(#SVGID_00000052070657782969892640000006699764965477595521_);}
	.st41{clip-path:url(#SVGID_00000079454318091098987350000015338386226713423028_);fill:#FFFFFF;}
	.st42{clip-path:url(#SVGID_00000103251052485833618500000012428229617630996392_);fill:#FFFFFF;}
	.st43{clip-path:url(#SVGID_00000102531073637633894900000006236138443935330945_);fill:#FFFFFF;}
	.st44{filter:url(#Adobe_OpacityMaskFilter_00000106841824908824967300000004688612697388225680_);}
	.st45{clip-path:url(#SVGID_00000174566960575525776180000009051569089026024882_);fill:#010202;}
	
		.st46{clip-path:url(#SVGID_00000174566960575525776180000009051569089026024882_);mask:url(#SVGID_00000116216963667002647200000015266691559688172165_);}
	.st47{clip-path:url(#SVGID_00000142883192226517696820000002097393729596152500_);fill:#FFFFFF;}
	.st48{clip-path:url(#SVGID_00000142883192226517696820000002097393729596152500_);fill:#EEF2E6;}
	.st49{clip-path:url(#SVGID_00000142883192226517696820000002097393729596152500_);fill:#237B69;}
	.st50{clip-path:url(#SVGID_00000142883192226517696820000002097393729596152500_);fill:#010202;}
	.st51{filter:url(#Adobe_OpacityMaskFilter_00000152971278612221036430000016579633050627588281_);}
	.st52{clip-path:url(#SVGID_00000142883192226517696820000002097393729596152500_);fill:#D9D9D9;}
	.st53{clip-path:url(#SVGID_00000142883192226517696820000002097393729596152500_);}
	.st54{clip-path:url(#SVGID_00000076562576382338379960000008936758614903680658_);}
	.st55{clip-path:url(#SVGID_00000120558595264389361920000010709817622050221996_);}
	.st56{filter:url(#Adobe_OpacityMaskFilter_00000121988829752588672000000017334723139647757238_);}
	
		.st57{clip-path:url(#SVGID_00000142883192226517696820000002097393729596152500_);mask:url(#SVGID_00000098194426179587917680000011722677994806083493_);}
	.st58{clip-path:url(#SVGID_00000049925871483879494910000017709933159452260507_);}
	.st59{clip-path:url(#SVGID_00000129203318723166403710000016004349675106150298_);}
	.st60{clip-path:url(#SVGID_00000105427442718635464950000002574188079186327998_);}
	.st61{clip-path:url(#SVGID_00000084519282284101509880000016872493866501355931_);fill:#87AE95;}
	.st62{clip-path:url(#SVGID_00000142883192226517696820000002097393729596152500_);enable-background:new    ;}
	.st63{clip-path:url(#SVGID_00000052789106364230506930000013867942111406969257_);fill:#010202;}
	.st64{clip-path:url(#SVGID_00000142883192226517696820000002097393729596152500_);fill:#B0C9B9;}
	.st65{clip-path:url(#SVGID_00000142883192226517696820000002097393729596152500_);fill:#BED3C6;}
	.st66{clip-path:url(#SVGID_00000013885567682143112730000010979449168212128183_);}
	.st67{clip-path:url(#SVGID_00000099650819447454384630000004482230022515043717_);}
	.st68{clip-path:url(#SVGID_00000113348719012775854150000000992029586952622490_);}
	.st69{clip-path:url(#SVGID_00000114761419606615608980000014593023721663235456_);}
	.st70{clip-path:url(#SVGID_00000083789958635430410520000007541716440233277618_);}
	.st71{clip-path:url(#SVGID_00000162321855368587857490000007034445199402986682_);}
	.st72{clip-path:url(#SVGID_00000147934727563549519080000016180686408409278854_);}
	.st73{filter:url(#Adobe_OpacityMaskFilter_00000055701698537435168350000011886900383388784795_);}
	.st74{clip-path:url(#SVGID_00000022555560252195438240000016977413601746947220_);fill:#010202;}
	
		.st75{clip-path:url(#SVGID_00000022555560252195438240000016977413601746947220_);mask:url(#SVGID_00000065033497497772891140000009900264929213792642_);}
	.st76{clip-path:url(#SVGID_00000037661787818961707250000013022138523889924743_);fill:#FFFFFF;}
	.st77{clip-path:url(#SVGID_00000037661787818961707250000013022138523889924743_);fill:#EEF2E6;}
	.st78{clip-path:url(#SVGID_00000037661787818961707250000013022138523889924743_);fill:#237B69;}
	.st79{clip-path:url(#SVGID_00000037661787818961707250000013022138523889924743_);fill:#010202;}
	.st80{filter:url(#Adobe_OpacityMaskFilter_00000084510667046311826860000009468323628542715821_);}
	.st81{clip-path:url(#SVGID_00000037661787818961707250000013022138523889924743_);fill:#D9D9D9;}
	.st82{clip-path:url(#SVGID_00000037661787818961707250000013022138523889924743_);}
	.st83{clip-path:url(#SVGID_00000142177291892535438170000003605435026856228786_);}
	.st84{clip-path:url(#SVGID_00000107572471278970958960000014125438145949242292_);}
	.st85{filter:url(#Adobe_OpacityMaskFilter_00000073682103540086035950000011287353925551570876_);}
	
		.st86{clip-path:url(#SVGID_00000037661787818961707250000013022138523889924743_);mask:url(#SVGID_00000065778283115279291780000008607818773354958244_);}
	.st87{clip-path:url(#SVGID_00000145741918089910532840000008890915016310589071_);}
	.st88{clip-path:url(#SVGID_00000137839173920484606670000015704600712047708812_);}
	.st89{clip-path:url(#SVGID_00000000943399046811157310000016405847992821380788_);}
	.st90{clip-path:url(#SVGID_00000127764420124353828240000016314081071167570876_);fill:#87AE95;}
	.st91{clip-path:url(#SVGID_00000037661787818961707250000013022138523889924743_);enable-background:new    ;}
	.st92{clip-path:url(#SVGID_00000040548847152446421660000000425283704273014942_);fill:#010202;}
	.st93{clip-path:url(#SVGID_00000037661787818961707250000013022138523889924743_);fill:#BED3C6;}
	.st94{clip-path:url(#SVGID_00000115493085337830309560000012015179948114574483_);}
	.st95{clip-path:url(#SVGID_00000082362896933334736090000011524596598148098448_);}
	.st96{clip-path:url(#SVGID_00000143596094821426966090000002105685594502943904_);}
	.st97{clip-path:url(#SVGID_00000016050935595654160550000004388620875558696892_);}
	.st98{clip-path:url(#SVGID_00000140730132244518373630000005921571862895921852_);}
	.st99{clip-path:url(#SVGID_00000159449337694893533450000014412718414964583056_);}
	.st100{clip-path:url(#SVGID_00000062181750582154788790000002952870466760367761_);}
	.st101{clip-path:url(#SVGID_00000143577613178528689820000003642876424920278186_);}
</style>
<g>
	<g>
		<defs>
			<rect id="SVGID_00000147182603256966815680000014256179903815249803_" width="113.1" height="110"/>
		</defs>
		<clipPath id="SVGID_00000161590311479670950010000012413244339878933901_">
			<use xlink:href="#SVGID_00000147182603256966815680000014256179903815249803_"  style="overflow:visible;"/>
		</clipPath>
		<path style="clip-path:url(#SVGID_00000161590311479670950010000012413244339878933901_);fill:#237B69;" d="M19.8,96.5
			C32,106.7,48,110,67.5,106.6l-0.5-3c-18.9,3.2-33.9,0-45.3-9.5L19.8,96.5z"/>
		<path style="clip-path:url(#SVGID_00000161590311479670950010000012413244339878933901_);fill:#237B69;" d="M5.6,75
			C3.7,68.1,3,60.7,3.7,53.4l-3-0.3c-0.7,7.7,0,15.4,2,22.7L5.6,75z"/>
		<path style="clip-path:url(#SVGID_00000161590311479670950010000012413244339878933901_);fill:#237B69;" d="M48.4,23.7
			C59.2,23.9,67,26,72.5,29.3c5.5,3.3,9,7.9,11,13.4l2.8-1.1c-2.3-6.1-6.1-11.2-12.3-14.9c-6.1-3.7-14.5-5.8-25.6-6L48.4,23.7z"/>
		<path style="clip-path:url(#SVGID_00000161590311479670950010000012413244339878933901_);fill:#237B69;" d="M82.6,11.5
			C66.7,0,50.9,0.6,39.2,4.1c-5.8,1.7-10.7,4.2-14.1,6.2c-1.7,1-3,1.9-3.9,2.6c-0.5,0.3-0.8,0.6-1,0.8c-0.1,0.1-0.2,0.2-0.3,0.2
			c0,0-0.1,0-0.1,0.1c0,0,0,0,0,0c0,0,0,0,0,0c0,0,0,0,0,0c0,0,0,0,1,1.2c1,1.2,1,1.2,1,1.2c0,0,0,0,0,0c0,0,0,0,0,0c0,0,0,0,0,0
			c0,0,0,0,0.1,0c0.1,0,0.1-0.1,0.2-0.2c0.2-0.2,0.5-0.4,1-0.7c0.9-0.6,2.1-1.5,3.7-2.4C29.9,11,34.5,8.6,40.1,7
			c11.1-3.3,25.8-3.9,40.7,6.9L82.6,11.5z M99.6,69.8c2.5,4,4.6,6.7,6.4,8.1c0.9,0.7,1.9,1.2,3,1.2c1.1,0,2.1-0.5,2.7-1.4
			c0.6-0.8,0.9-1.8,1.1-2.9c0.2-1.1,0.3-2.4,0.3-3.8c-0.1-2.8-0.5-6.3-1.4-10.2c-1.7-7.8-5-17.2-9.9-26.2
			C97,25.7,90.5,17.2,82.6,11.5l-1.8,2.4c7.5,5.4,13.6,13.5,18.3,22.2c4.7,8.7,7.9,17.9,9.6,25.4c0.8,3.8,1.3,7.1,1.3,9.6
			c0,1.3-0.1,2.4-0.2,3.2c-0.2,0.9-0.4,1.4-0.6,1.6c-0.1,0.2-0.2,0.2-0.2,0.2c-0.1,0-0.5-0.1-1.2-0.6c-1.4-1-3.3-3.3-5.7-7.3
			L99.6,69.8z M53.5,63c9.4-8.1,17.8-11.4,25.3-10.3c7.4,1.1,14.4,6.6,20.8,17.1l2.6-1.6c-6.6-10.8-14.3-17.2-23-18.5
			c-8.7-1.3-17.9,2.6-27.7,11L53.5,63z M100.9,69l1.3-0.8l0,0L100.9,69z"/>
		<path style="clip-path:url(#SVGID_00000161590311479670950010000012413244339878933901_);fill:#237B69;" d="M49.4,90.6
			c6.4,10.3,13.9,16.3,22.7,17.2c8.7,0.9,18.2-3.2,28.3-11.7l-1.9-2.3c-9.9,8.3-18.5,11.8-26.1,11C64.9,104,58,98.9,51.9,89
			L49.4,90.6z"/>
		<path style="clip-path:url(#SVGID_00000161590311479670950010000012413244339878933901_);fill:#237B69;" d="M10.1,93.8v-45h-3v45
			H10.1z M13.6,93.8c-1.5,0-2.9-0.4-4.1-1.3L7.7,95c1.7,1.2,3.8,1.8,5.8,1.8V93.8z M17.7,92.5c-1.2,0.9-2.7,1.3-4.1,1.3v3
			c2.1,0,4.1-0.6,5.8-1.8L17.7,92.5z M17,48.8v45h3v-45H17z M8.6,93.8H7.1v0.8L7.7,95L8.6,93.8z M18.5,93.8l0.8,1.2l0.7-0.4v-0.8
			H18.5z"/>
		<path style="clip-path:url(#SVGID_00000161590311479670950010000012413244339878933901_);fill:#237B69;" d="M3.4,19.8
			c0-0.9,0.7-1.7,1.6-1.7v-3c-2.6,0-4.6,2.1-4.6,4.7H3.4z M3.4,45.6V19.8h-3v25.8H3.4z M5,47.3c-0.9,0-1.6-0.7-1.6-1.7h-3
			c0,2.6,2,4.7,4.6,4.7V47.3z M22.1,47.3H5v3h17V47.3z M23.7,45.6c0,0.9-0.7,1.7-1.6,1.7v3c2.6,0,4.6-2.1,4.6-4.7H23.7z M23.7,19.8
			v25.8h3V19.8H23.7z M22.1,18.2c0.9,0,1.6,0.7,1.6,1.7h3c0-2.6-2-4.7-4.6-4.7V18.2z M5,18.2h17v-3H5V18.2z"/>
		
			<rect x="8.2" y="16.7" style="clip-path:url(#SVGID_00000161590311479670950010000012413244339878933901_);fill:#237B69;" width="3" height="19.9"/>
		
			<rect x="14.8" y="16.7" style="clip-path:url(#SVGID_00000161590311479670950010000012413244339878933901_);fill:#237B69;" width="3" height="19.9"/>
		<path style="clip-path:url(#SVGID_00000161590311479670950010000012413244339878933901_);fill:#237B69;" d="M30,29.6
			c0-1,0.6-2.7,1.7-4.6c1.1-1.9,2.5-3.8,4-5.3c0.7-0.8,1.4-1.4,2-1.8c0.6-0.5,1.1-0.7,1.4-0.8c0.2-0.1,0.1,0-0.1-0.1
			c0-0.1,0.1,0.1,0.1,1h3c0-1.1-0.2-2.2-0.9-3c-0.8-0.9-1.9-1-2.8-0.8c-0.9,0.2-1.7,0.7-2.5,1.3c-0.8,0.6-1.6,1.3-2.4,2.2
			c-1.6,1.7-3.2,3.8-4.4,5.9c-1.2,2-2.1,4.2-2.1,6.1L30,29.6z M30,92.9V29.6h-3v63.3H30z M34.6,92.7c-1.9,0-3.8-0.4-5.5-1.2
			l-1.3,2.7c2.1,1,4.4,1.5,6.7,1.5V92.7z M40,91.5c-1.7,0.8-3.6,1.2-5.5,1.2v3c2.3,0,4.6-0.5,6.7-1.5L40,91.5z M39.2,18v74.9h3V18
			H39.2z M28.5,29.6H30l0,0L28.5,29.6z M28.5,92.9H27v1l0.9,0.4L28.5,92.9z M34.6,94.2v-1.5V94.2z M40.7,92.9l0.6,1.4l0.9-0.4v-1
			H40.7z"/>
		
			<rect x="28.5" y="56.2" style="clip-path:url(#SVGID_00000161590311479670950010000012413244339878933901_);fill:#237B69;" width="12.2" height="3"/>
		<polygon style="clip-path:url(#SVGID_00000161590311479670950010000012413244339878933901_);fill:#237B69;" points="53,84.4 
			53,67.2 55.1,67.2 55.1,75.7 55.3,75.7 63,67.2 65.7,67.2 58.5,75 65.7,84.4 63.2,84.4 57.2,76.4 55.1,78.8 55.1,84.4 		"/>
		<path style="clip-path:url(#SVGID_00000161590311479670950010000012413244339878933901_);fill:#237B69;" d="M55.1,83.8H53v1.1h2.1
			V83.8z M54.5,78.8v5.6h1.1v-5.6H54.5z M56.8,76l-2.1,2.4l0.8,0.7l2.1-2.4L56.8,76z M63.6,84.1l-6-8l-0.9,0.7l6,8L63.6,84.1z
			 M65.7,83.8h-2.5v1.1h2.5V83.8z M58.1,75.3l7.2,9.4l0.9-0.7l-7.2-9.4L58.1,75.3z M65.3,66.9l-7.2,7.7l0.8,0.7l7.2-7.7L65.3,66.9z
			 M63,67.8h2.7v-1.1H63V67.8z M55.7,76.1l7.7-8.5l-0.8-0.7l-7.7,8.5L55.7,76.1z M55.1,76.3h0.2v-1.1h-0.2V76.3z M54.5,67.2v8.5h1.1
			v-8.5H54.5z M53,67.8h2.1v-1.1H53V67.8z M53.5,84.4V67.2h-1.1v17.2H53.5z M55.1,84.4v0.6h0.5v-0.6H55.1z M55.1,78.8l-0.4-0.4
			l-0.1,0.2v0.2H55.1z M57.2,76.4l0.4-0.3l-0.4-0.5L56.8,76L57.2,76.4z M63.2,84.4l-0.4,0.3l0.2,0.2h0.3V84.4z M65.7,84.4v0.6h1.1
			l-0.7-0.9L65.7,84.4z M58.5,75l-0.4-0.4l-0.3,0.3l0.3,0.4L58.5,75z M65.7,67.2l0.4,0.4l0.9-0.9h-1.3V67.2z M63,67.2v-0.6h-0.2
			l-0.2,0.2L63,67.2z M55.3,75.7v0.6h0.2l0.2-0.2L55.3,75.7z M55.1,75.7h-0.5v0.6h0.5V75.7z M55.1,67.2h0.5v-0.6h-0.5V67.2z
			 M53,67.2v-0.6h-0.5v0.6H53z M53,84.4h-0.5v0.6H53V84.4z"/>
		<path style="clip-path:url(#SVGID_00000161590311479670950010000012413244339878933901_);fill:#237B69;" d="M78.8,72.6h-2.1
			c-0.1-0.6-0.3-1.1-0.6-1.6c-0.3-0.5-0.7-0.8-1.1-1.1c-0.4-0.3-0.9-0.5-1.4-0.7s-1.1-0.2-1.6-0.2c-1,0-2,0.3-2.8,0.8
			c-0.8,0.5-1.5,1.3-2,2.3c-0.5,1-0.7,2.3-0.7,3.8s0.2,2.7,0.7,3.8c0.5,1,1.2,1.8,2,2.3c0.8,0.5,1.8,0.8,2.8,0.8
			c0.6,0,1.1-0.1,1.6-0.2s1-0.4,1.4-0.7c0.4-0.3,0.8-0.7,1.1-1.1c0.3-0.5,0.5-1,0.6-1.6h2.1c-0.2,0.9-0.4,1.7-0.9,2.4
			c-0.4,0.7-0.9,1.3-1.5,1.8c-0.6,0.5-1.3,0.8-2.1,1.1c-0.8,0.3-1.6,0.4-2.4,0.4c-1.5,0-2.8-0.4-3.9-1.1s-2-1.7-2.7-3
			c-0.7-1.3-1-2.9-1-4.7c0-1.8,0.3-3.4,1-4.7c0.7-1.3,1.5-2.3,2.7-3c1.1-0.7,2.4-1.1,3.9-1.1c0.9,0,1.7,0.1,2.4,0.4
			c0.8,0.3,1.5,0.6,2.1,1.1c0.6,0.5,1.1,1.1,1.5,1.8C78.4,70.9,78.6,71.7,78.8,72.6z"/>
		<path style="clip-path:url(#SVGID_00000161590311479670950010000012413244339878933901_);fill:#237B69;" d="M77.5,70.5
			c0.4,0.6,0.6,1.3,0.8,2.2l1.1-0.2c-0.2-0.9-0.5-1.8-0.9-2.5L77.5,70.5z M76.1,68.9c0.6,0.4,1,1,1.4,1.6l0.9-0.6
			c-0.4-0.7-1-1.4-1.7-1.9L76.1,68.9z M74.2,67.9c0.7,0.2,1.3,0.6,1.9,1l0.7-0.9c-0.7-0.5-1.4-0.9-2.2-1.2L74.2,67.9z M71.9,67.5
			c0.8,0,1.6,0.1,2.3,0.3l0.3-1c-0.8-0.3-1.7-0.4-2.6-0.4V67.5z M68.3,68.5c1-0.7,2.2-1,3.6-1v-1.1c-1.6,0-3,0.4-4.2,1.2L68.3,68.5z
			 M65.8,71.4c0.6-1.2,1.4-2.2,2.5-2.8l-0.6-0.9c-1.2,0.8-2.2,1.9-2.9,3.3L65.8,71.4z M64.9,75.8c0-1.7,0.3-3.2,0.9-4.4l-1-0.5
			c-0.7,1.4-1,3.1-1,4.9H64.9z M65.8,80.3c-0.6-1.2-0.9-2.7-0.9-4.4h-1.1c0,1.9,0.3,3.5,1,4.9L65.8,80.3z M68.3,83.1
			c-1-0.7-1.9-1.6-2.5-2.8l-1,0.5c0.7,1.4,1.7,2.5,2.9,3.3L68.3,83.1z M71.9,84.1c-1.4,0-2.6-0.3-3.6-1L67.7,84
			c1.2,0.8,2.6,1.2,4.2,1.2V84.1z M74.2,83.7c-0.7,0.2-1.5,0.3-2.3,0.3v1.1c0.9,0,1.8-0.1,2.6-0.4L74.2,83.7z M76.1,82.7
			c-0.6,0.4-1.2,0.8-1.9,1l0.3,1c0.8-0.3,1.6-0.7,2.2-1.2L76.1,82.7z M77.5,81.1c-0.4,0.6-0.8,1.2-1.4,1.6l0.7,0.9
			c0.7-0.5,1.2-1.2,1.7-1.9L77.5,81.1z M78.3,78.9c-0.1,0.8-0.4,1.5-0.8,2.2l0.9,0.6c0.5-0.8,0.8-1.6,0.9-2.5L78.3,78.9z M76.7,79.6
			h2.1v-1.1h-2.1V79.6z M76.5,80.9c0.4-0.5,0.6-1.1,0.7-1.8l-1.1-0.2c-0.1,0.5-0.3,1-0.6,1.4L76.5,80.9z M75.3,82.2
			c0.5-0.4,0.9-0.8,1.2-1.3l-0.9-0.6c-0.3,0.4-0.6,0.7-1,1L75.3,82.2z M73.7,83c0.6-0.2,1.1-0.4,1.6-0.8l-0.6-0.9
			c-0.4,0.3-0.8,0.5-1.3,0.6L73.7,83z M71.9,83.2c0.6,0,1.2-0.1,1.8-0.3l-0.3-1.1c-0.5,0.1-1,0.2-1.5,0.2V83.2z M68.8,82.4
			c0.9,0.6,2,0.9,3.1,0.9v-1.1c-0.9,0-1.8-0.2-2.5-0.7L68.8,82.4z M66.6,79.8c0.5,1.1,1.3,2,2.2,2.5l0.6-0.9
			c-0.7-0.5-1.3-1.2-1.8-2.1L66.6,79.8z M65.8,75.8c0,1.5,0.3,2.9,0.8,4l1-0.5c-0.4-0.9-0.7-2.1-0.7-3.5H65.8z M66.6,71.8
			c-0.5,1.1-0.8,2.5-0.8,4h1.1c0-1.4,0.2-2.6,0.7-3.5L66.6,71.8z M68.8,69.3c-0.9,0.6-1.7,1.4-2.2,2.5l1,0.5
			c0.5-0.9,1.1-1.6,1.8-2.1L68.8,69.3z M71.9,68.4c-1.1,0-2.2,0.3-3.1,0.9l0.6,0.9c0.8-0.5,1.6-0.7,2.5-0.7V68.4z M73.7,68.6
			c-0.6-0.2-1.2-0.3-1.8-0.3v1.1c0.5,0,1,0.1,1.5,0.2L73.7,68.6z M75.3,69.4c-0.5-0.4-1-0.6-1.6-0.8l-0.3,1.1
			c0.5,0.1,0.9,0.3,1.3,0.6L75.3,69.4z M76.5,70.7c-0.3-0.5-0.8-0.9-1.2-1.3l-0.6,0.9c0.4,0.3,0.7,0.6,1,1L76.5,70.7z M77.3,72.5
			c-0.1-0.7-0.4-1.3-0.7-1.8l-0.9,0.6c0.3,0.4,0.5,0.8,0.6,1.4L77.3,72.5z M78.8,72h-2.1v1.1h2.1V72z M77.9,70.2l-0.5,0.3l0,0
			L77.9,70.2z M76.4,68.5l-0.3,0.4l0,0L76.4,68.5z M74.3,67.4l-0.2,0.5l0,0L74.3,67.4z M65.3,80.5l0.5-0.2L65.3,80.5z M68,83.5
			L67.7,84L68,83.5z M74.3,84.2l-0.2-0.5l0,0L74.3,84.2z M76.4,83.1l0.3,0.4l0,0L76.4,83.1z M77.9,81.4l-0.5-0.3L77.9,81.4z
			 M78.8,79l0.5,0.1l0.1-0.6h-0.7V79z M76.7,79v-0.6h-0.4l-0.1,0.4L76.7,79z M76.1,80.6l-0.5-0.3l0,0L76.1,80.6z M75,81.7l0.3,0.4
			l0,0L75,81.7z M73.5,82.4l-0.2-0.5L73.5,82.4z M69.1,81.9l-0.3,0.5l0,0L69.1,81.9z M67.1,79.6l-0.5,0.2l0,0L67.1,79.6z M67.1,72
			l-0.5-0.2l0,0L67.1,72z M69.1,69.7l-0.3-0.5l0,0L69.1,69.7z M73.5,69.2l-0.2,0.5L73.5,69.2z M75,69.9l-0.3,0.4l0,0L75,69.9z
			 M76.1,71l-0.5,0.3l0,0L76.1,71z M76.7,72.6l-0.5,0.1l0.1,0.4h0.4V72.6z M78.8,72.6v0.5h0.7l-0.1-0.6L78.8,72.6z"/>
		<path style="clip-path:url(#SVGID_00000161590311479670950010000012413244339878933901_);fill:#237B69;" d="M79.8,77.7h8.8v1.8
			h-8.8V77.7z M79,84.4h-2.2l6.3-17.2h2.1l6.3,17.2h-2.2l-5.1-14.4h-0.1L79,84.4z"/>
		<path style="clip-path:url(#SVGID_00000161590311479670950010000012413244339878933901_);fill:#237B69;" d="M80.4,79.5v-1.8h-1.1
			v1.8H80.4z M88.6,79h-8.8v1.1h8.8V79z M88.1,77.7v1.8h1.1v-1.8H88.1z M79.8,78.2h8.8v-1.1h-8.8V78.2z M83.6,69.8l-5.1,14.4l1,0.4
			l5.1-14.4L83.6,69.8z M84.3,69.4h-0.1v1.1h0.1V69.4z M89.9,84.2l-5.1-14.4l-1,0.4l5.1,14.4L89.9,84.2z M91.6,83.8h-2.2v1.1h2.2
			V83.8z M84.8,67.4l6.3,17.2l1-0.4L85.8,67L84.8,67.4z M83.1,67.8h2.1v-1.1h-2.1V67.8z M77.4,84.6l6.3-17.2l-1-0.4l-6.3,17.2
			L77.4,84.6z M79,83.8h-2.2v1.1H79V83.8z M79.8,79.5h-0.6v0.5h0.6V79.5z M88.6,79.5v0.5h0.5v-0.5H88.6z M88.6,77.7h0.5v-0.6h-0.5
			V77.7z M79.8,77.7v-0.6h-0.6v0.6H79.8z M84.2,69.9v-0.6h-0.4l-0.1,0.4L84.2,69.9z M84.3,69.9l0.5-0.2l-0.1-0.4h-0.4V69.9z
			 M89.4,84.4l-0.5,0.2l0.1,0.4h0.4V84.4z M91.6,84.4v0.6h0.8l-0.3-0.7L91.6,84.4z M85.3,67.2l0.5-0.2l-0.1-0.4h-0.4V67.2z
			 M83.1,67.2v-0.6h-0.4L82.6,67L83.1,67.2z M76.8,84.4l-0.5-0.2l-0.3,0.7h0.8V84.4z M79,84.4v0.6h0.4l0.1-0.4L79,84.4z"/>
		<polygon style="clip-path:url(#SVGID_00000161590311479670950010000012413244339878933901_);fill:#237B69;" points="90.9,84.4 
			90.9,67.2 93,67.2 93,82.5 101,82.5 101,84.4 		"/>
		<path style="clip-path:url(#SVGID_00000161590311479670950010000012413244339878933901_);fill:#237B69;" d="M101,83.8h-10v1.1h10
			V83.8z M100.4,82.5v1.8h1.1v-1.8H100.4z M93,83.1h8V82h-8V83.1z M92.5,67.2v15.3h1.1V67.2H92.5z M90.9,67.8H93v-1.1h-2.1V67.8z
			 M91.5,84.4V67.2h-1.1v17.2H91.5z M101,84.4v0.6h0.6v-0.6H101z M101,82.5h0.6V82H101V82.5z M93,82.5h-0.5v0.6H93V82.5z M93,67.2
			h0.6v-0.6H93V67.2z M90.9,67.2v-0.6h-0.6v0.6H90.9z M90.9,84.4h-0.6v0.6h0.6V84.4z"/>
	</g>
</g>
</svg>
