<?xml version="1.0" encoding="utf-8"?>
<!-- Generator: Adobe Illustrator 26.1.0, SVG Export Plug-In . SVG Version: 6.00 Build 0)  -->
<svg version="1.1" id="Capa_1" xmlns="http://www.w3.org/2000/svg" xmlns:xlink="http://www.w3.org/1999/xlink" x="0px" y="0px"
	 viewBox="0 0 48.7 50.9" style="enable-background:new 0 0 48.7 50.9;" xml:space="preserve">
<style type="text/css">
	.st0{fill:#FFFFFF;}
</style>
<g>
	<path class="st0" d="M25,35.9c-0.8-0.1-1.6-0.2-2.4-0.3c-0.8-0.1-1.4,0.1-1.9,0.8c-0.8,1.3-2,1.9-3.4,1.8c-0.2,0-0.5,0.1-0.6,0.3
		c-1.4,1.5-2.8,3-4.1,4.5c-0.2,0.2-0.3,0.6-0.2,0.8c0.4,2.2-0.7,4.3-2.7,4.9c-2,0.6-4-0.6-4.6-2.7c-0.1-0.4-0.3-0.6-0.7-0.7
		c-2-0.7-3-2.9-2.5-5c0.5-2.1,2.5-3.3,4.5-2.9c0.3,0.1,0.6-0.1,0.8-0.3c1.4-1.4,2.7-2.9,4-4.4c0.2-0.2,0.3-0.6,0.3-0.8
		c0-1.5,0.5-2.6,1.6-3.5c0.6-0.5,1-1.1,0.8-2c-0.9-6.5,1.4-11.9,5.2-16.6c3-3.7,6.7-6.2,11.2-7.3c2.9-0.7,5.7-0.5,8.4,0.9
		c4.1,2.1,6.3,6.9,5.9,12.1c-0.7,9.5-8.6,18.4-17.1,20.1C26.7,35.7,25.8,35.8,25,35.9z M25,33.6c0.8-0.1,1.6-0.1,2.5-0.3
		c5-1.2,8.8-4.2,11.8-8.6c2.1-3.2,3.4-6.7,3.4-10.7c0-4.3-2.2-7.7-5.7-9c-2.1-0.8-4.1-0.8-6.2-0.2c-6.1,1.6-10.3,5.7-13.2,11.6
		c-1.4,3-2,6.2-1.5,9.6c0.3,1.7-0.3,3.1-1.6,4.1c-1,0.8-1.1,2-0.2,3c0.6,0.7,1.2,1.4,1.9,2c1.1,1.2,2.1,1.1,3-0.2
		c0.9-1.2,2.1-1.8,3.5-1.6C23.4,33.4,24.1,33.5,25,33.6z M12.5,34.6c-1.4,1.5-2.9,3.1-4.3,4.7c-0.8,0.8-0.9,0.8-1.9,0.4
		c-0.7-0.3-1.4-0.2-1.9,0.4C3.9,40.6,3.7,41.3,4,42c0.3,0.7,0.8,1.2,1.6,1.2c1.1,0,1.4,0.3,1.4,1.5c0,0.8,0.3,1.4,1,1.7
		c0.6,0.3,1.4,0.2,1.9-0.4c0.5-0.6,0.7-1.4,0.3-2.1c-0.4-0.8-0.3-1.4,0.3-1.9c0.5-0.5,0.9-1,1.4-1.5c1-1.1,2.1-2.2,3-3.3
		C14,36.4,13.3,35.5,12.5,34.6z"/>
	<path class="st0" d="M34.7,17c0.6,0,1.1,0.5,1.1,1.2c0,0.6-0.5,1.1-1,1.2c-0.6,0-1.1-0.5-1.1-1.2C33.6,17.5,34.1,17,34.7,17z"/>
	<path class="st0" d="M38.6,17c0.6,0,1.1,0.6,1.1,1.2c0,0.7-0.5,1.2-1.1,1.1c-0.6,0-1-0.5-1-1.2C37.5,17.5,38,17,38.6,17z"/>
	<path class="st0" d="M39.6,14c0,0.7-0.5,1.2-1.1,1.2c-0.6,0-1-0.5-1-1.2c0-0.7,0.5-1.2,1.1-1.2C39.2,12.8,39.6,13.3,39.6,14z"/>
</g>
<g>
</g>
<g>
</g>
<g>
</g>
<g>
</g>
<g>
</g>
<g>
</g>
</svg>
