<?xml version="1.0" encoding="utf-8"?>
<!-- Generator: Adobe Illustrator 26.1.0, SVG Export Plug-In . SVG Version: 6.00 Build 0)  -->
<svg version="1.1" id="Capa_1" xmlns="http://www.w3.org/2000/svg" xmlns:xlink="http://www.w3.org/1999/xlink" x="0px" y="0px"
	 viewBox="0 0 162.2 145.8" style="enable-background:new 0 0 162.2 145.8;" xml:space="preserve">
<g>
	<g>
		<path d="M35.6,54.3c4.9,2.1,11.2-0.3,17.5,0c5.6,0.2,10.3,2.5,14,6.9c0.9,1.1,1,1.6-0.4,2.5c-4.7,2.9-6.9,7.1-6.3,12.6
			c0.6,5.1,3.7,8.5,8.4,10.4c1,0.4,1.4,0.8,1,2c-2,5.7-4.9,10.9-9.8,14.7c-4.8,3.8-10,4.5-15.5,1.6c-1.3-0.7-2.5-0.7-3.8,0
			c-6,3.3-12.1,1.8-16.8-2.5c-6.4-6-9.4-13.7-10.5-22.2c-0.4-3.5-0.2-6.9,0.5-10.2C16.2,60.3,24,53.8,35.6,54.3z"/>
		<path d="M125.1,82c-2.5,0.2-4.5-1.1-6-3.1c-1.8-2.3-3.4-2.4-5,0c-2.7,4-9.3,4.3-12.4,0c-1.7-2.3-3.2-2.3-5,0
			c-3.3,4.2-8.8,4.3-12.1,0.2c-2.1-2.6-3.3-2.6-5.5,0.1c-2.1,2.6-5.5,3.5-8.6,2.3c-3-1.1-4.7-3.9-4.6-7.2c0.1-3.1,2.1-5.8,5.1-6.8
			c0.8-0.2,1.5-0.3,2.3-0.3c3.6,0,4.2-0.6,4.2-4.2c0-2.5,1-4.4,2.8-6c1.2-0.9,2.5-1.4,4-1.5c1.9,0,3.1-0.8,3.6-2.8
			c1.6-5.5,5.8-8.7,11.4-8.8c5.6,0,9.9,3.2,11.4,8.7c0.6,2,1.7,2.7,3.6,2.9c4.5,0.5,7.3,3.8,6.9,8.2c-0.2,2,0.9,3.2,2.9,3.3
			c1.3,0.1,2.6-0.1,3.9,0.4c3.3,1.2,5.3,4.7,4.8,8C131.9,79.5,129.1,82,125.1,82z"/>
		<path d="M99.1,106.6c-1.7,0-3.4,0-5.1,0c-1,0-1.4-0.4-1.2-1.4c1.2-5.9,1.9-11.9,2.6-17.8c0.1-1.2,2.7-2.9,4-2.7
			c1.5,0.2,3.4,1.8,3.5,3.3c0.7,5.8,1.3,11.6,2.5,17.3c0.2,1-0.2,1.3-1.1,1.3C102.6,106.5,100.9,106.6,99.1,106.6
			C99.1,106.6,99.1,106.6,99.1,106.6z"/>
		<path d="M34.5,48.7c-1.3,0-2.5,0-3.8,0c-4.3-0.2-6.2-4-5.5-8.2c0.1-0.7,0.7-0.7,1.3-0.7c2.8,0,5.5-0.1,8.3,0
			c3.6,0.2,6.3,4.6,5.2,8c-0.2,0.8-0.8,0.8-1.4,0.8C37.3,48.7,35.9,48.7,34.5,48.7z"/>
	</g>
</g>
</svg>
