<?xml version="1.0" encoding="utf-8"?>
<!-- Generator: Adobe Illustrator 26.1.0, SVG Export Plug-In . SVG Version: 6.00 Build 0)  -->
<svg version="1.1" id="Capa_1" xmlns="http://www.w3.org/2000/svg" xmlns:xlink="http://www.w3.org/1999/xlink" x="0px" y="0px"
	 viewBox="0 0 90.1 91.1" style="enable-background:new 0 0 90.1 91.1;" xml:space="preserve">
<style type="text/css">
	.st0{clip-path:url(#SVGID_00000125565287472772054310000011396543838447425204_);fill:#237B69;}
	.st1{clip-path:url(#SVGID_00000047024874792441827090000006101965843913723054_);fill:#237B69;}
	.st2{clip-path:url(#SVGID_00000160878595018020101970000011848581985143208892_);fill:#237B69;}
	.st3{clip-path:url(#SVGID_00000166651180575145001500000016879732883121113730_);fill:#237B69;}
	
		.st4{clip-path:url(#SVGID_00000044864329100196141440000006494085657130081973_);fill-rule:evenodd;clip-rule:evenodd;fill:#237B69;}
	
		.st5{clip-path:url(#SVGID_00000172422825590076895290000018284907371254544025_);fill-rule:evenodd;clip-rule:evenodd;fill:#237B69;}
	.st6{clip-path:url(#SVGID_00000119102243417810971290000016210704524130400644_);fill:#237B69;}
	.st7{clip-path:url(#SVGID_00000010272529377066521440000017422321806311429546_);fill:#010202;}
	.st8{clip-path:url(#SVGID_00000103232119544244490040000000114851667877442472_);fill:#010202;}
	.st9{clip-path:url(#SVGID_00000180339876411517063910000002151586558721334446_);fill:#010202;}
	.st10{clip-path:url(#SVGID_00000160151964009034680020000003781836839419909526_);fill:#010202;}
	.st11{clip-path:url(#SVGID_00000168824374516000850210000011377890847096645272_);}
	.st12{clip-path:url(#SVGID_00000168837057662771203720000011192398199551955097_);}
	.st13{clip-path:url(#SVGID_00000016783675985304436040000013922234049396647553_);fill:#010202;}
	.st14{clip-path:url(#SVGID_00000052075663389160351190000004343677929875355274_);}
	.st15{clip-path:url(#SVGID_00000034054897682191100480000011581968683800527545_);}
	.st16{clip-path:url(#SVGID_00000014603360685766949000000015204921232221049482_);}
	.st17{clip-path:url(#SVGID_00000054973218911433818150000008915553838259358881_);}
	.st18{clip-path:url(#SVGID_00000087386219828406390570000015532563602546833299_);fill:#FFFFFF;}
	.st19{clip-path:url(#SVGID_00000051381635786849937110000009102396076898212532_);fill:#FFFFFF;}
	.st20{filter:url(#Adobe_OpacityMaskFilter);}
	.st21{clip-path:url(#SVGID_00000026135066367599113770000013857460709311129788_);}
	.st22{clip-path:url(#SVGID_00000100354609435389864890000013716518291781586587_);fill:#010202;}
	
		.st23{clip-path:url(#SVGID_00000026135066367599113770000013857460709311129788_);mask:url(#SVGID_00000011017158661810649120000015203887809544792983_);}
	.st24{clip-path:url(#SVGID_00000078043608260087538690000013677974104330389146_);fill:#FFFFFF;}
	.st25{clip-path:url(#SVGID_00000120517779179453986540000005487768526638477743_);fill:#010202;}
	.st26{clip-path:url(#SVGID_00000156552845456985778240000003648446385535882132_);fill:#010202;}
	.st27{clip-path:url(#SVGID_00000088824895873057932630000010556296511744195207_);fill:#010202;}
	.st28{clip-path:url(#SVGID_00000111192071948991650780000013084126720934365118_);fill:#010202;}
	
		.st29{clip-path:url(#SVGID_00000095322992483268425220000011806701799549482163_);fill-rule:evenodd;clip-rule:evenodd;fill:#010202;}
	.st30{clip-path:url(#SVGID_00000099661996253080270200000017544950493997750401_);}
	.st31{clip-path:url(#SVGID_00000023979200567944155570000004490086989882476211_);}
	.st32{clip-path:url(#SVGID_00000014598346603089294400000004364235823981026700_);fill:#1D6859;}
	.st33{clip-path:url(#SVGID_00000140723444295444487670000010185358991198134152_);}
	.st34{clip-path:url(#SVGID_00000081620729046080274520000011224474508427850893_);}
	.st35{clip-path:url(#SVGID_00000028292663583252331650000000434081945547273870_);}
	.st36{clip-path:url(#SVGID_00000140008699373553789350000014440192897011561893_);}
	.st37{clip-path:url(#SVGID_00000036944770101227666990000007154118377708362883_);}
	.st38{clip-path:url(#SVGID_00000004537015161037995410000000592835429739920555_);}
	.st39{clip-path:url(#SVGID_00000168101025826206173020000009905709784222751147_);}
	.st40{clip-path:url(#SVGID_00000176002354106388663540000004560388961855440280_);}
	.st41{clip-path:url(#SVGID_00000158030366879086612890000010354543407954654617_);fill:#FFFFFF;}
	.st42{clip-path:url(#SVGID_00000150815189761122252230000011902292469690857872_);fill:#FFFFFF;}
	.st43{clip-path:url(#SVGID_00000091728167595529071490000015272498549911787414_);fill:#FFFFFF;}
	.st44{filter:url(#Adobe_OpacityMaskFilter_00000165954661067380019280000006825928579444133032_);}
	.st45{clip-path:url(#SVGID_00000168807070448615427560000012433185633492832687_);fill:#010202;}
	
		.st46{clip-path:url(#SVGID_00000168807070448615427560000012433185633492832687_);mask:url(#SVGID_00000041291322923743554650000000294194297336351923_);}
	.st47{clip-path:url(#SVGID_00000176039633415978248770000010374633738550381241_);fill:#FFFFFF;}
	.st48{clip-path:url(#SVGID_00000176039633415978248770000010374633738550381241_);fill:#EEF2E6;}
	.st49{clip-path:url(#SVGID_00000176039633415978248770000010374633738550381241_);fill:#237B69;}
	.st50{clip-path:url(#SVGID_00000176039633415978248770000010374633738550381241_);fill:#010202;}
	.st51{filter:url(#Adobe_OpacityMaskFilter_00000130607378331807585690000008303996799382429614_);}
	.st52{clip-path:url(#SVGID_00000176039633415978248770000010374633738550381241_);fill:#D9D9D9;}
	.st53{clip-path:url(#SVGID_00000176039633415978248770000010374633738550381241_);}
	.st54{clip-path:url(#SVGID_00000088094146548588067040000005202284557072186274_);}
	.st55{clip-path:url(#SVGID_00000009561331392507588610000008383121175906199946_);}
	.st56{filter:url(#Adobe_OpacityMaskFilter_00000075864019347481572910000010883758916317336704_);}
	
		.st57{clip-path:url(#SVGID_00000176039633415978248770000010374633738550381241_);mask:url(#SVGID_00000080901347556008647400000016884951771211075473_);}
	.st58{clip-path:url(#SVGID_00000093867390346701364300000007205886964037182647_);}
	.st59{clip-path:url(#SVGID_00000181082031808868500590000000920027159539231138_);}
	.st60{clip-path:url(#SVGID_00000008143091407292751750000010262874500303294086_);}
	.st61{clip-path:url(#SVGID_00000132089905747648434430000005959927885470739856_);fill:#87AE95;}
	.st62{clip-path:url(#SVGID_00000176039633415978248770000010374633738550381241_);enable-background:new    ;}
	.st63{clip-path:url(#SVGID_00000057831021522977740690000012319376904704908701_);fill:#010202;}
	.st64{clip-path:url(#SVGID_00000176039633415978248770000010374633738550381241_);fill:#B0C9B9;}
	.st65{clip-path:url(#SVGID_00000176039633415978248770000010374633738550381241_);fill:#BED3C6;}
	.st66{clip-path:url(#SVGID_00000103980311783514455940000014185136899003069101_);}
	.st67{clip-path:url(#SVGID_00000128457390277909799670000006168221548667502220_);}
	.st68{clip-path:url(#SVGID_00000098184253322665035300000014674698365969959863_);}
	.st69{clip-path:url(#SVGID_00000111166008791866025450000012340938362213295014_);}
	.st70{clip-path:url(#SVGID_00000147924481088900757090000007858779532592931218_);}
	.st71{clip-path:url(#SVGID_00000097500348017342560040000001012643761260471225_);}
	.st72{clip-path:url(#SVGID_00000129192960454632494950000005908222190964047285_);}
	.st73{filter:url(#Adobe_OpacityMaskFilter_00000013904567516922162160000008012183804575138731_);}
	.st74{clip-path:url(#SVGID_00000091698207888142947160000011653854352418351802_);fill:#010202;}
	
		.st75{clip-path:url(#SVGID_00000091698207888142947160000011653854352418351802_);mask:url(#SVGID_00000164471836387502099470000012610106363757848496_);}
	.st76{clip-path:url(#SVGID_00000021121839816814121210000001409063089657889425_);fill:#FFFFFF;}
	.st77{clip-path:url(#SVGID_00000021121839816814121210000001409063089657889425_);fill:#EEF2E6;}
	.st78{clip-path:url(#SVGID_00000021121839816814121210000001409063089657889425_);fill:#237B69;}
	.st79{clip-path:url(#SVGID_00000021121839816814121210000001409063089657889425_);fill:#010202;}
	.st80{filter:url(#Adobe_OpacityMaskFilter_00000164478973094437142100000015441655824480707746_);}
	.st81{clip-path:url(#SVGID_00000021121839816814121210000001409063089657889425_);fill:#D9D9D9;}
	.st82{clip-path:url(#SVGID_00000021121839816814121210000001409063089657889425_);}
	.st83{clip-path:url(#SVGID_00000087398989717157617830000003751270187130101922_);}
	.st84{clip-path:url(#SVGID_00000013907715000607646110000005323627278023069339_);}
	.st85{filter:url(#Adobe_OpacityMaskFilter_00000007430108880508299680000009091435584043895689_);}
	
		.st86{clip-path:url(#SVGID_00000021121839816814121210000001409063089657889425_);mask:url(#SVGID_00000141450302449749449760000014048775176425146518_);}
	.st87{clip-path:url(#SVGID_00000156558931640681011470000016044647594828902025_);}
	.st88{clip-path:url(#SVGID_00000057852497924038582340000015211372589520203138_);}
	.st89{clip-path:url(#SVGID_00000121278697387689732020000010065081019960321459_);}
	.st90{clip-path:url(#SVGID_00000011001464088188423010000018060219877683487398_);fill:#87AE95;}
	.st91{clip-path:url(#SVGID_00000021121839816814121210000001409063089657889425_);enable-background:new    ;}
	.st92{clip-path:url(#SVGID_00000163033184071747374840000007626234410471447999_);fill:#010202;}
	.st93{clip-path:url(#SVGID_00000021121839816814121210000001409063089657889425_);fill:#BED3C6;}
	.st94{clip-path:url(#SVGID_00000166660717539055161910000007571987848220987029_);}
	.st95{clip-path:url(#SVGID_00000124841252653607209660000011824305236228418733_);}
	.st96{clip-path:url(#SVGID_00000142156817177421828570000003618940242681988520_);}
	.st97{clip-path:url(#SVGID_00000103974617486091087060000014929075322081891247_);}
	.st98{clip-path:url(#SVGID_00000083805518241784042670000008772215243196178358_);}
	.st99{clip-path:url(#SVGID_00000011749711775516707110000014643652408293619090_);}
	.st100{clip-path:url(#SVGID_00000145017324942537245010000017839113310336040624_);}
	.st101{clip-path:url(#SVGID_00000148631057054483293060000018336606699516186023_);}
</style>
<g>
	<g>
		<defs>
			<rect id="SVGID_00000042736583131524820970000008361676395947917221_" width="90.1" height="91.1"/>
		</defs>
		<clipPath id="SVGID_00000042723388291569051640000003860879880861447319_">
			<use xlink:href="#SVGID_00000042736583131524820970000008361676395947917221_"  style="overflow:visible;"/>
		</clipPath>
		<path style="clip-path:url(#SVGID_00000042723388291569051640000003860879880861447319_);fill:#237B69;" d="M19.6,43.6
			c-0.4-0.5-0.7-0.9-1.1-1.3c-0.2-0.2-0.3-0.3-0.6-0.4s-0.4-0.2-0.7-0.2c-0.2,0-0.5,0-0.7,0.1s-0.4,0.2-0.6,0.4
			c-0.2,0.2-0.3,0.4-0.4,0.6s-0.1,0.5-0.1,0.7c0,0.2,0.1,0.5,0.2,0.7s0.2,0.4,0.4,0.6c0.7,0.7,1.5,1.5,2.2,2.2
			c0.2,0.2,0.4,0.4,0.6,0.6s0.5,0.2,0.8,0.2s0.6-0.1,0.8-0.2s0.5-0.3,0.6-0.6l4.5-4.5c0.2-0.1,0.4-0.3,0.5-0.6s0.2-0.5,0.2-0.7
			s0-0.5-0.1-0.7S26.2,40,26,39.8c-0.8-0.8-1.8-0.7-2.7,0.2L19.6,43.6z M44.8,76c1.9,0,3.8,0,5.8,0c1.2,0,2-0.7,2-1.7
			c0-0.3-0.1-0.5-0.2-0.7s-0.3-0.4-0.4-0.6s-0.4-0.3-0.7-0.4s-0.5-0.1-0.7-0.1c-3.8,0-7.7,0-11.5,0c-1.2,0-2,0.7-2,1.8
			s0.8,1.7,2,1.7C41,76,42.9,76,44.8,76z M42.2,61.9h8c0.4,0,0.7,0,1.1-0.1c0.4-0.1,0.7-0.3,1-0.6s0.4-0.7,0.4-1.1s-0.2-0.8-0.4-1.1
			s-0.6-0.5-1-0.5c-0.3,0-0.7-0.1-1-0.1c-5.3,0-10.6,0-15.9,0c-0.4,0-0.8,0-1.2,0.1c-0.4,0.1-0.7,0.3-0.9,0.6s-0.3,0.6-0.3,1
			s0.1,0.7,0.3,1s0.5,0.5,0.9,0.6c0.4,0.1,0.8,0.2,1.3,0.2C36.9,61.9,39.5,61.9,42.2,61.9z M43.2,33.6h9.4c1.2,0,2.1-0.7,2.1-1.7
			c0-1-0.8-1.8-2.1-1.8H33.8c-1.2,0-2,0.7-2,1.7c0,0.2,0.1,0.5,0.2,0.7s0.3,0.4,0.4,0.6s0.4,0.3,0.6,0.4s0.5,0.1,0.7,0.1H43.2z
			 M48.5,68.9c3.1,0,6.3,0,9.4,0c1.3,0,2.1-0.6,2.1-1.7c0-0.3-0.1-0.5-0.2-0.7s-0.3-0.4-0.5-0.6s-0.4-0.3-0.7-0.4s-0.5-0.1-0.8-0.1
			H39.2c-0.2,0-0.5,0-0.7,0.1s-0.5,0.2-0.6,0.4s-0.3,0.4-0.4,0.6s-0.2,0.5-0.2,0.7c0,1,0.8,1.7,2,1.7C42.3,68.9,45.4,68.9,48.5,68.9
			z M43.3,47.7c3.1,0,6.3,0,9.4,0c0.5,0,1-0.2,1.4-0.5c0.3-0.2,0.5-0.5,0.5-0.8s0-0.7-0.1-1c-0.1-0.4-0.4-0.7-0.7-0.9
			s-0.7-0.3-1.1-0.3H33.8c-0.3,0-0.5,0-0.7,0.1s-0.5,0.2-0.7,0.4s-0.3,0.4-0.4,0.6c-0.1,0.2-0.2,0.5-0.2,0.7c0,1.1,0.7,1.7,2,1.7
			L43.3,47.7z M45.9,51.3h-12c-1.3,0-2.1,0.7-2.1,1.7s0.8,1.7,2.1,1.7c8,0,16,0,23.9,0c1.3,0,2.1-0.6,2.2-1.7s-0.8-1.8-2.2-1.8H45.9
			z M20.6,33.5c1.1,0,2.3,0,3.4,0c0.3,0,0.5,0,0.8-0.1s0.5-0.2,0.7-0.4s0.3-0.4,0.4-0.7s0.1-0.5,0.1-0.8c0-2.3,0-4.5,0-6.8
			c0-0.2,0-0.5-0.1-0.7s-0.2-0.4-0.3-0.6c-0.2-0.2-0.3-0.3-0.6-0.4c-0.2-0.1-0.4-0.1-0.7-0.2c-2.4-0.1-4.9-0.1-7.3,0
			c-0.2,0-0.5,0-0.7,0.1c-0.2,0.1-0.4,0.2-0.6,0.4s-0.3,0.4-0.3,0.6c-0.1,0.2-0.1,0.5-0.1,0.7c0,2.3,0,4.6,0,6.9
			c0,0.3,0,0.5,0.1,0.7s0.2,0.4,0.4,0.6s0.4,0.3,0.6,0.4s0.5,0.1,0.7,0.1C18.5,33.6,19.6,33.6,20.6,33.5L20.6,33.5z M50.3,26.5h16.1
			c0.4,0,0.8,0,1.2-0.1c0.4-0.1,0.7-0.3,1-0.6c0.2-0.3,0.4-0.7,0.3-1.1c0-0.4-0.1-0.7-0.3-1c-0.2-0.3-0.5-0.5-0.9-0.6
			C67.3,23,66.9,23,66.5,23c-10.8,0-21.5,0-32.3,0c-1.5,0-2.4,0.6-2.4,1.8s0.8,1.8,2.4,1.8H50.3L50.3,26.5z M50.4,37.2H33.8
			c-0.3,0-0.7,0-1,0.2s-0.6,0.4-0.8,0.7c-0.7,1.3,0.2,2.6,1.9,2.6h32.8c1.3,0,2.1-0.7,2.1-1.8s-0.8-1.7-2.1-1.7L50.4,37.2z
			 M35.4,7.1h-15c-0.8,0-1.7,0.1-2.4,0.4c-0.8,0.3-1.5,0.7-2.1,1.3c-0.6,0.6-1.1,1.3-1.4,2S14,12.5,14,13.3s0.2,1.7,0.5,2.4
			c0.3,0.8,0.8,1.5,1.4,2c0.6,0.6,1.3,1,2.1,1.3c0.8,0.3,1.6,0.4,2.4,0.4c9.9,0,19.9,0,29.8,0c0.6,0,1.3-0.1,1.9-0.3
			c1.4-0.4,2.6-1.3,3.4-2.6s1.1-2.7,0.9-4.2c-0.2-1.5-0.9-2.8-2-3.7s-2.5-1.5-4-1.5C45.4,7.1,40.4,7.1,35.4,7.1z M76,46
			c-1.8,0-3.6,0-5.3,0c-1.3,0-2.6,0.3-3.7,1s-2,1.6-2.6,2.8c-0.6,1.1-0.9,2.4-0.8,3.7s0.5,2.5,1.3,3.6c0.3,0.5,0.5,1,0.4,1.6
			c-0.3,5.6-1.8,11-4.3,15.9c-1.7,3.3-3.3,6.7-5,10c-0.9,1.7-1.7,3.4-1,5.5H27c0.4-0.5,0.7-0.8,1-1.2c3.2-4.1,4.8-9.1,4.6-14.3
			c-0.2-6.3-4.7-12.1-10.5-13.5c-1.6-0.3-3.2-0.4-4.8-0.4c-0.1-1-0.1-2.1-0.3-3.2c-0.2-1-0.5-1.9-0.9-2.9c-0.1-0.2-0.2-0.4-0.4-0.6
			s-0.4-0.3-0.6-0.4s-0.5-0.1-0.7-0.1c-0.2,0-0.5,0.1-0.7,0.2c-0.2,0.1-0.4,0.2-0.6,0.4c-0.2,0.2-0.3,0.4-0.3,0.6
			c-0.1,0.2-0.1,0.5-0.1,0.7c0,0.2,0.1,0.5,0.2,0.7c0.6,1.6,0.9,3.3,0.7,5L7,60.8V2.2C7,0.6,7.6,0,9.2,0h50c0.3,0,0.5,0,0.9,0.1
			v13.5c0,1.8,0.6,2.4,2.3,2.4H76V46z"/>
		<path style="clip-path:url(#SVGID_00000042723388291569051640000003860879880861447319_);fill:#237B69;" d="M0,75.7
			c0.1-4.1,1.5-7.5,4.9-9.9c1.3-0.9,2.9-1.5,4.5-1.6s3.2,0.3,4.6,1.1c0.3,0.2,0.7,0.2,1,0.1c2-1.1,4.3-1.5,6.5-1s4.1,1.9,5.4,3.8
			c1.9,2.6,2.6,5.8,2.2,9c-0.4,3.8-2,7.4-4.5,10.3c-1.1,1.3-2.6,2.2-4.3,2.5s-3.5-0.1-4.9-1c-0.2-0.1-0.4-0.2-0.7-0.2
			s-0.5,0.1-0.7,0.2c-3.6,2-6.9,1.4-9.6-1.8C1.6,84,0.1,79.9,0,75.7z"/>
		<path style="clip-path:url(#SVGID_00000042723388291569051640000003860879880861447319_);fill:#237B69;" d="M74.2,90.2
			c-4.5,0-9,0-13.5,0c-2.2,0-2.9-1.2-2-3.1c2.3-4.7,4.6-9.4,6.9-14.1c0.1-0.1,0.2-0.3,0.3-0.3c0.1-0.1,0.3-0.1,0.5-0.2
			c5.2,0,10.4,0,15.5,0c0.2,0,0.3,0.1,0.4,0.1c0.1,0.1,0.2,0.2,0.3,0.3c2.4,4.8,4.7,9.6,7.1,14.4c0.2,0.3,0.3,0.7,0.3,1
			c0,0.4-0.1,0.7-0.3,1c-0.2,0.3-0.5,0.5-0.9,0.7s-0.7,0.2-1.1,0.1L74.2,90.2z"/>
		<path style="clip-path:url(#SVGID_00000042723388291569051640000003860879880861447319_);fill:#237B69;" d="M67.1,68.9
			c0.3-1.6,0.7-3,1-4.5c0.3-1.5,0.4-2.9,0.7-4.4h10.7c0.5,2.9,1.1,5.9,1.7,8.9H67.1z"/>
		<path style="clip-path:url(#SVGID_00000042723388291569051640000003860879880861447319_);fill:#237B69;" d="M74.2,49.5
			c1.2,0,2.3,0,3.5,0c0.5,0,1,0,1.4,0.2c0.5,0.2,0.9,0.4,1.2,0.8c0.4,0.3,0.6,0.7,0.8,1.2c0.2,0.4,0.3,0.9,0.3,1.4
			c0,0.5-0.1,1-0.3,1.4c-0.2,0.4-0.5,0.8-0.8,1.2c-0.4,0.3-0.8,0.6-1.2,0.8c-0.5,0.2-0.9,0.2-1.4,0.2c-2.3,0-4.7,0-7,0
			c-0.5,0-1-0.1-1.4-0.2c-0.5-0.2-0.9-0.4-1.2-0.8c-0.3-0.3-0.6-0.7-0.8-1.2C67.1,54,67,53.5,67,53c0-0.5,0.1-1,0.3-1.4
			c0.2-0.4,0.5-0.8,0.8-1.2c0.4-0.3,0.8-0.6,1.2-0.7c0.5-0.2,0.9-0.2,1.4-0.2H74.2z"/>
		<path style="clip-path:url(#SVGID_00000042723388291569051640000003860879880861447319_);fill:#237B69;" d="M74.5,12.4H63.6V1.5
			C67.2,5.1,70.9,8.8,74.5,12.4z"/>
		<path style="clip-path:url(#SVGID_00000042723388291569051640000003860879880861447319_);fill:#237B69;" d="M35.4,10.6h14.7
			c0.5,0,1,0.1,1.5,0.3s0.8,0.6,1.1,1.1s0.4,1,0.3,1.5c0,0.5-0.2,1-0.5,1.4c-0.3,0.4-0.7,0.7-1.1,0.9S50.4,16,49.9,16H20.6
			c-0.4,0-0.7,0-1.1-0.1c-0.3-0.1-0.7-0.3-0.9-0.5s-0.5-0.5-0.7-0.8c-0.2-0.3-0.3-0.7-0.3-1c0-0.4,0-0.7,0.1-1.1
			c0.1-0.3,0.3-0.7,0.6-0.9c0.3-0.3,0.6-0.5,0.9-0.6s0.7-0.2,1.1-0.2c1.4,0,2.8,0,4.2,0L35.4,10.6z"/>
		
			<rect x="19" y="26.6" style="clip-path:url(#SVGID_00000042723388291569051640000003860879880861447319_);fill:#237B69;" width="3.5" height="3.5"/>
	</g>
</g>
</svg>
