<?xml version="1.0" encoding="utf-8"?>
<!-- Generator: Adobe Illustrator 26.1.0, SVG Export Plug-In . SVG Version: 6.00 Build 0)  -->
<svg version="1.1" id="Capa_1" xmlns="http://www.w3.org/2000/svg" xmlns:xlink="http://www.w3.org/1999/xlink" x="0px" y="0px"
	 viewBox="0 0 25.8 57.5" style="enable-background:new 0 0 25.8 57.5;" xml:space="preserve">
<style type="text/css">
	.st0{fill:#FFFFFF;}
</style>
<g>
	<path class="st0" d="M7.1,15.1c-1-0.9-1.9-1.8-2.9-2.7c-1-0.9-1.7-2-1.7-3.4C2.4,6,5.1,3.7,8.1,4.4c0.1,0,0.3,0.1,0.5,0.1
		c0.9-2,2.4-3.2,4.6-3.1c2,0.1,3.3,1.2,4.1,3c0.9,0,1.8-0.2,2.6,0c3.4,0.8,4.7,5.1,2.2,7.6c-1.1,1.1-2.2,2.1-3.3,3.2
		c0.7,0.6,1.4,1.1,2,1.8c2.5,2.8,3.4,6.1,2.6,9.7c-1.8,8.5-3.6,17.1-5.5,25.6c-0.5,2.4-2.5,4-4.9,4c-2.4,0-4.4-1.6-4.9-4
		c-1.9-8.7-3.8-17.5-5.5-26.2c-0.8-4.2,0.7-7.7,4-10.4c0.2-0.2,0.4-0.3,0.6-0.5C7.1,15.2,7.1,15.2,7.1,15.1z M19.9,30.7
		c0.3-1.7,0.7-3.2,1-4.8c0.7-3.3-0.8-6.8-3.7-8.6c-2.8-1.8-6.6-1.6-9.2,0.4c-1.8,1.4-2.9,3.3-3.2,5.6c1.6,0,3.2,0,4.8,0
		c1,0,1.5,0.4,1.5,1.2c0,0.8-0.5,1.2-1.5,1.2c-1.5,0-3,0-4.7,0c1,4.5,1.9,8.9,2.8,13.4c1.3,0,2.5,0,3.8,0c0.9,0,1.4,0.5,1.4,1.3
		c0,0.7-0.5,1.2-1.4,1.2c-1.1,0-2.1,0-3.3,0c0.8,3.5,1.5,7,2.2,10.4c0.2,1,1.2,1.7,2.3,1.7c1,0,2-0.5,2.4-1.5
		c0.3-0.7,0.4-1.4,0.5-2.1c-0.2-0.1-0.2-0.1-0.3-0.1c-0.6,0-1.2,0-1.8,0c-0.8,0-1.3-0.5-1.3-1.2c0-0.8,0.5-1.2,1.3-1.2
		c0.9,0,1.7,0,2.6,0c1-4.9,2.1-9.7,3.1-14.5c-0.1,0-0.1-0.1-0.2-0.1c-1,0-1.9,0-2.9,0c-2.6,0.1-2.6-0.4-2.7-1.2
		c-0.1-1,0.5-1.2,2.7-1.2C17.4,30.7,18.6,30.7,19.9,30.7z M13,3.9c-1.3,0-2.3,1.2-2.1,2.4c0.5,2.3,1.1,4.6,1.7,6.9
		c0,0.2,0.2,0.3,0.3,0.4c0.1-0.2,0.3-0.3,0.4-0.5c0.6-2.3,1.2-4.5,1.7-6.8C15.3,5.1,14.2,3.9,13,3.9z M15.6,14.1
		c0.4-0.1,0.6-0.1,0.8-0.2c1.3-1.2,2.6-2.4,3.9-3.6c0.8-0.8,0.7-1.9,0-2.8c-0.7-0.8-1.7-1-2.6-0.4c-0.2,0.1-0.4,0.4-0.5,0.6
		C16.7,9.7,16.2,11.8,15.6,14.1z M10.3,14.1c-0.6-2.3-1.1-4.3-1.6-6.3C8.6,7.5,8.3,7.1,8,7c-0.9-0.5-2-0.2-2.6,0.6
		c-0.7,0.9-0.6,2,0.2,2.8c1.2,1.2,2.5,2.3,3.7,3.5C9.5,13.9,9.8,14,10.3,14.1z"/>
</g>
<g>
</g>
<g>
</g>
<g>
</g>
<g>
</g>
<g>
</g>
<g>
</g>
</svg>
