<?xml version="1.0" encoding="utf-8"?>
<!-- Generator: Adobe Illustrator 26.1.0, SVG Export Plug-In . SVG Version: 6.00 Build 0)  -->
<svg version="1.1" id="Capa_1" xmlns="http://www.w3.org/2000/svg" xmlns:xlink="http://www.w3.org/1999/xlink" x="0px" y="0px"
	 viewBox="0 0 25.8 57.5" style="enable-background:new 0 0 25.8 57.5;" xml:space="preserve">
<style type="text/css">
	.st0{fill:#FFFFFF;}
</style>
<g>
	<path class="st0" d="M14,6.1c2.2,0.4,4.1,1.2,5.6,2.7c2,1.9,3.1,4.2,3.3,6.9c0.1,1.7-0.5,3.1-1.5,4.4c-0.2,0.3-0.4,0.7-0.4,1.1
		c-0.1,3.4-0.2,6.7-0.2,10.1c0.1,4.3,0.9,8.4,1.8,12.6C23.9,50.1,19,56,12.7,56C5.8,56,1,49.9,2.6,43.1c1.5-6.4,2-12.8,1.6-19.3
		c0-0.3,0-0.6,0-0.9c0-1.3-0.2-2.5-1-3.7C1.8,17.3,2,15.2,2.7,13C4.1,9.3,6.8,7,10.8,6.2c0.5-0.1,0.7-0.3,0.8-0.7
		c0.8-2.6,3.2-4.3,5.7-4.3c0.8,0,1.3,0.5,1.3,1.2c0,0.7-0.4,1.2-1.2,1.3c-1.3,0.1-2.4,0.6-3.1,1.8C14.2,5.6,14.1,5.8,14,6.1z
		 M6.8,22c0,2,0,4,0,6c0,5.3-0.6,10.6-1.8,15.7c-0.7,3,0,5.6,2.3,7.7c2.6,2.4,6.3,2.8,9.3,1c3-1.8,4.4-5.2,3.5-8.7
		c-1-4.1-1.7-8.2-1.7-12.4c-0.1-2.9,0.1-5.8,0.1-8.7c0-0.2,0-0.6-0.2-0.7c-0.9-0.7-1.8-1.3-2.7-1.9c-1.7,0.8-2,2.4-1.8,4.2
		c0,0,0,0.1,0,0.2c0,0.8-0.5,1.3-1.2,1.2c-0.7,0-1.2-0.5-1.2-1.3s0-1.6,0-2.4c0-0.2,0-0.4-0.1-0.6c-0.6-0.5-1.1-1-1.6-1.5
		C8.6,20.7,7.7,21.4,6.8,22z M12.6,8.5c-3.7,0-7,2.6-7.8,6.3c-0.3,1.5,0,2.8,1.1,4c0.4,0.4,0.7,0.4,1.1,0C7.8,18,8.2,17.1,8.3,16
		c0.1-1,0.5-1.4,1.2-1.4c0.8,0,1.2,0.4,1.3,1.4c0.1,1,0.4,1.9,1.1,2.7c0.6,0.7,0.8,0.7,1.4,0c0.7-0.8,1-1.7,1.2-2.8
		c0-0.4,0.2-0.9,0.5-1.1c0.3-0.2,0.9-0.3,1.2-0.1c0.3,0.2,0.7,0.7,0.7,1.1c0.1,1.2,0.5,2.3,1.4,3.1c0.2,0.1,0.6,0.2,0.7,0.1
		c1-0.8,1.6-1.9,1.5-3.2C20.1,11.7,16.6,8.5,12.6,8.5z"/>
	<path class="st0" d="M13.8,30.5c0,0.4,0,0.8,0,1.2c0,0.7-0.5,1.2-1.2,1.2c-0.7,0-1.2-0.4-1.2-1.2c0-0.8,0-1.7,0-2.5
		c0-0.7,0.5-1.2,1.2-1.2c0.7,0,1.2,0.5,1.2,1.2C13.8,29.6,13.8,30,13.8,30.5z"/>
</g>
<g>
</g>
<g>
</g>
<g>
</g>
<g>
</g>
<g>
</g>
<g>
</g>
</svg>
